<ttFont>
    <TTGlyph name=".notdef" xMin="50" yMin="-250" xMax="450" yMax="750">
      <contour>
        <pt x="50" y="-250" on="1"/>
        <pt x="450" y="-250" on="1"/>
        <pt x="450" y="750" on="1"/>
        <pt x="50" y="750" on="1"/>
      </contour>
      <contour>
        <pt x="100" y="-200" on="1"/>
        <pt x="100" y="700" on="1"/>
        <pt x="400" y="700" on="1"/>
        <pt x="400" y="-200" on="1"/>
      </contour>
    </TTGlyph>
    <TTGlyph name="Euro" xMin="57" yMin="-37" xMax="493" yMax="644">
      <contour>
        <pt x="57" y="216" on="1"/>
        <pt x="66" y="253" on="1"/>
        <pt x="143" y="253" on="1"/>
        <pt x="138" y="283" on="0"/>
        <pt x="138" y="313" on="1"/>
        <pt x="138" y="334" on="0"/>
        <pt x="140" y="355" on="1"/>
        <pt x="73" y="355" on="1"/>
        <pt x="82" y="392" on="1"/>
        <pt x="147" y="392" on="1"/>
        <pt x="163" y="460" on="0"/>
        <pt x="253" y="575" on="0"/>
        <pt x="396" y="644" on="0"/>
        <pt x="493" y="644" on="1"/>
        <pt x="493" y="607" on="1"/>
        <pt x="407" y="607" on="0"/>
        <pt x="280" y="548" on="0"/>
        <pt x="201" y="450" on="0"/>
        <pt x="185" y="392" on="1"/>
        <pt x="432" y="392" on="1"/>
        <pt x="423" y="355" on="1"/>
        <pt x="178" y="355" on="1"/>
        <pt x="175" y="334" on="0"/>
        <pt x="175" y="313" on="1"/>
        <pt x="175" y="283" on="0"/>
        <pt x="181" y="253" on="1"/>
        <pt x="417" y="253" on="1"/>
        <pt x="408" y="216" on="1"/>
        <pt x="191" y="216" on="1"/>
        <pt x="209" y="160" on="0"/>
        <pt x="288" y="62" on="0"/>
        <pt x="410" y="1" on="0"/>
        <pt x="493" y="0" on="1"/>
        <pt x="493" y="-37" on="1"/>
        <pt x="398" y="-37" on="0"/>
        <pt x="259" y="35" on="0"/>
        <pt x="170" y="150" on="0"/>
        <pt x="152" y="216" on="1"/>
      </contour>
    </TTGlyph>
    <TTGlyph name="arrowboth" xMin="33" yMin="83" xMax="672" yMax="481">
      <contour>
        <pt x="234" y="83" on="1"/>
        <pt x="33" y="282" on="1"/>
        <pt x="234" y="481" on="1"/>
        <pt x="261" y="455" on="1"/>
        <pt x="105" y="300" on="1"/>
        <pt x="601" y="300" on="1"/>
        <pt x="446" y="455" on="1"/>
        <pt x="472" y="481" on="1"/>
        <pt x="672" y="282" on="1"/>
        <pt x="471" y="83" on="1"/>
        <pt x="445" y="110" on="1"/>
        <pt x="600" y="263" on="1"/>
        <pt x="105" y="263" on="1"/>
        <pt x="260" y="110" on="1"/>
      </contour>
    </TTGlyph>
    <TTGlyph name="arrowdown" xMin="89" yMin="-25" xMax="540" yMax="556">
      <contour>
        <pt x="315" y="-25" on="1"/>
        <pt x="89" y="203" on="1"/>
        <pt x="115" y="229" on="1"/>
        <pt x="295" y="47" on="1"/>
        <pt x="295" y="556" on="1"/>
        <pt x="332" y="556" on="1"/>
        <pt x="332" y="45" on="1"/>
        <pt x="514" y="228" on="1"/>
        <pt x="540" y="202" on="1"/>
      </contour>
    </TTGlyph>
    <TTGlyph name="arrowleft" xMin="32" yMin="61" xMax="608" yMax="513">
      <contour>
        <pt x="259" y="61" on="1"/>
        <pt x="32" y="287" on="1"/>
        <pt x="260" y="513" on="1"/>
        <pt x="286" y="486" on="1"/>
        <pt x="103" y="305" on="1"/>
        <pt x="608" y="305" on="1"/>
        <pt x="608" y="268" on="1"/>
        <pt x="103" y="268" on="1"/>
        <pt x="285" y="88" on="1"/>
      </contour>
    </TTGlyph>
    <TTGlyph name="arrowright" xMin="39" yMin="61" xMax="615" yMax="513">
      <contour>
        <pt x="39" y="268" on="1"/>
        <pt x="39" y="305" on="1"/>
        <pt x="545" y="305" on="1"/>
        <pt x="361" y="486" on="1"/>
        <pt x="388" y="513" on="1"/>
        <pt x="615" y="287" on="1"/>
        <pt x="387" y="61" on="1"/>
        <pt x="361" y="88" on="1"/>
        <pt x="543" y="268" on="1"/>
      </contour>
    </TTGlyph>
    <TTGlyph name="arrowup" xMin="89" yMin="0" xMax="540" yMax="576">
      <contour>
        <pt x="296" y="0" on="1"/>
        <pt x="296" y="505" on="1"/>
        <pt x="115" y="323" on="1"/>
        <pt x="89" y="349" on="1"/>
        <pt x="314" y="576" on="1"/>
        <pt x="540" y="348" on="1"/>
        <pt x="514" y="322" on="1"/>
        <pt x="333" y="504" on="1"/>
        <pt x="333" y="0" on="1"/>
      </contour>
    </TTGlyph>
    <TTGlyph name="arrowupdn" xMin="115" yMin="-38" xMax="513" yMax="580">
      <contour>
        <pt x="315" y="-38" on="1"/>
        <pt x="115" y="163" on="1"/>
        <pt x="142" y="189" on="1"/>
        <pt x="296" y="33" on="1"/>
        <pt x="296" y="509" on="1"/>
        <pt x="142" y="353" on="1"/>
        <pt x="115" y="379" on="1"/>
        <pt x="314" y="580" on="1"/>
        <pt x="513" y="379" on="1"/>
        <pt x="487" y="352" on="1"/>
        <pt x="333" y="507" on="1"/>
        <pt x="333" y="33" on="1"/>
        <pt x="487" y="189" on="1"/>
        <pt x="513" y="162" on="1"/>
      </contour>
    </TTGlyph>
    <TTGlyph name="asciicircum" xMin="86" yMin="340" xMax="438" yMax="604">
      <contour>
        <pt x="86" y="340" on="1"/>
        <pt x="244" y="604" on="1"/>
        <pt x="275" y="604" on="1"/>
        <pt x="438" y="340" on="1"/>
        <pt x="401" y="340" on="1"/>
        <pt x="260" y="570" on="1"/>
        <pt x="123" y="340" on="1"/>
      </contour>
    </TTGlyph>
    <TTGlyph name="asterisk" xMin="59" yMin="317" xMax="382" yMax="671">
      <contour>
        <pt x="230" y="481" on="1"/>
        <pt x="238" y="317" on="1"/>
        <pt x="203" y="317" on="1"/>
        <pt x="211" y="481" on="1"/>
        <pt x="77" y="395" on="1"/>
        <pt x="60" y="425" on="1"/>
        <pt x="201" y="497" on="1"/>
        <pt x="59" y="570" on="1"/>
        <pt x="77" y="599" on="1"/>
        <pt x="211" y="513" on="1"/>
        <pt x="203" y="671" on="1"/>
        <pt x="238" y="671" on="1"/>
        <pt x="230" y="513" on="1"/>
        <pt x="364" y="599" on="1"/>
        <pt x="381" y="569" on="1"/>
        <pt x="238" y="497" on="1"/>
        <pt x="382" y="424" on="1"/>
        <pt x="364" y="394" on="1"/>
      </contour>
    </TTGlyph>
    <TTGlyph name="backslash" xMin="106" yMin="-184" xMax="344" yMax="730">
      <contour>
        <pt x="344" y="-184" on="1"/>
        <pt x="216" y="234" on="1"/>
        <pt x="106" y="730" on="1"/>
        <pt x="233" y="312" on="1"/>
      </contour>
    </TTGlyph>
    <TTGlyph name="bar" xMin="70" yMin="209" xMax="103" yMax="291">
      <contour>
        <pt x="70" y="209" on="1"/>
        <pt x="70" y="291" on="1"/>
        <pt x="103" y="291" on="1"/>
        <pt x="103" y="209" on="1"/>
      </contour>
    </TTGlyph>
    <TTGlyph name="braceleft" xMin="33" yMin="-232" xMax="340" yMax="732">
      <contour>
        <pt x="329" y="-232" on="1"/>
        <pt x="255" y="-232" on="0"/>
        <pt x="168" y="-189" on="0"/>
        <pt x="130" y="-93" on="0"/>
        <pt x="130" y="-13" on="1"/>
        <pt x="130" y="107" on="1"/>
        <pt x="130" y="158" on="0"/>
        <pt x="117" y="211" on="0"/>
        <pt x="76" y="230" on="0"/>
        <pt x="33" y="230" on="1"/>
        <pt x="33" y="267" on="1"/>
        <pt x="76" y="267" on="0"/>
        <pt x="117" y="285" on="0"/>
        <pt x="130" y="336" on="0"/>
        <pt x="130" y="385" on="1"/>
        <pt x="130" y="513" on="1"/>
        <pt x="130" y="593" on="0"/>
        <pt x="168" y="689" on="0"/>
        <pt x="255" y="732" on="0"/>
        <pt x="329" y="732" on="1"/>
        <pt x="340" y="732" on="1"/>
        <pt x="340" y="696" on="1"/>
        <pt x="273" y="696" on="0"/>
        <pt x="198" y="664" on="0"/>
        <pt x="168" y="584" on="0"/>
        <pt x="168" y="513" on="1"/>
        <pt x="168" y="384" on="1"/>
        <pt x="168" y="322" on="0"/>
        <pt x="143" y="259" on="0"/>
        <pt x="104" y="248" on="1"/>
        <pt x="143" y="237" on="0"/>
        <pt x="168" y="172" on="0"/>
        <pt x="168" y="107" on="1"/>
        <pt x="168" y="-13" on="1"/>
        <pt x="168" y="-84" on="0"/>
        <pt x="198" y="-164" on="0"/>
        <pt x="274" y="-196" on="0"/>
        <pt x="340" y="-196" on="1"/>
        <pt x="340" y="-232" on="1"/>
      </contour>
    </TTGlyph>
    <TTGlyph name="braceright" xMin="57" yMin="-232" xMax="364" yMax="732">
      <contour>
        <pt x="57" y="-232" on="1"/>
        <pt x="57" y="-196" on="1"/>
        <pt x="124" y="-196" on="0"/>
        <pt x="199" y="-164" on="0"/>
        <pt x="230" y="-84" on="0"/>
        <pt x="230" y="-13" on="1"/>
        <pt x="230" y="107" on="1"/>
        <pt x="230" y="172" on="0"/>
        <pt x="254" y="237" on="0"/>
        <pt x="294" y="248" on="1"/>
        <pt x="254" y="259" on="0"/>
        <pt x="230" y="322" on="0"/>
        <pt x="230" y="384" on="1"/>
        <pt x="230" y="513" on="1"/>
        <pt x="230" y="584" on="0"/>
        <pt x="199" y="663" on="0"/>
        <pt x="124" y="696" on="0"/>
        <pt x="57" y="696" on="1"/>
        <pt x="57" y="732" on="1"/>
        <pt x="68" y="732" on="1"/>
        <pt x="142" y="732" on="0"/>
        <pt x="230" y="689" on="0"/>
        <pt x="268" y="593" on="0"/>
        <pt x="268" y="513" on="1"/>
        <pt x="268" y="385" on="1"/>
        <pt x="268" y="336" on="0"/>
        <pt x="280" y="285" on="0"/>
        <pt x="322" y="267" on="0"/>
        <pt x="364" y="267" on="1"/>
        <pt x="364" y="230" on="1"/>
        <pt x="322" y="230" on="0"/>
        <pt x="280" y="211" on="0"/>
        <pt x="268" y="158" on="0"/>
        <pt x="268" y="107" on="1"/>
        <pt x="268" y="-13" on="1"/>
        <pt x="268" y="-93" on="0"/>
        <pt x="230" y="-189" on="0"/>
        <pt x="142" y="-232" on="0"/>
        <pt x="68" y="-232" on="1"/>
      </contour>
    </TTGlyph>
    <TTGlyph name="bracketleft" xMin="62" yMin="-232" xMax="222" yMax="732">
      <contour>
        <pt x="62" y="-232" on="1"/>
        <pt x="62" y="732" on="1"/>
        <pt x="222" y="732" on="1"/>
        <pt x="222" y="695" on="1"/>
        <pt x="100" y="695" on="1"/>
        <pt x="100" y="-195" on="1"/>
        <pt x="222" y="-195" on="1"/>
        <pt x="222" y="-232" on="1"/>
      </contour>
    </TTGlyph>
    <TTGlyph name="bracketright" xMin="57" yMin="-232" xMax="217" yMax="732">
      <contour>
        <pt x="57" y="-232" on="1"/>
        <pt x="57" y="-196" on="1"/>
        <pt x="179" y="-196" on="1"/>
        <pt x="179" y="695" on="1"/>
        <pt x="57" y="695" on="1"/>
        <pt x="57" y="732" on="1"/>
        <pt x="217" y="732" on="1"/>
        <pt x="217" y="-232" on="1"/>
      </contour>
    </TTGlyph>
    <TTGlyph name="bullet" xMin="54" yMin="204" xMax="202" yMax="352">
      <contour>
        <pt x="128" y="204" on="1"/>
        <pt x="97" y="204" on="0"/>
        <pt x="54" y="246" on="0"/>
        <pt x="54" y="278" on="1"/>
        <pt x="54" y="308" on="0"/>
        <pt x="96" y="352" on="0"/>
        <pt x="128" y="352" on="1"/>
        <pt x="160" y="352" on="0"/>
        <pt x="202" y="308" on="0"/>
        <pt x="202" y="278" on="1"/>
        <pt x="202" y="246" on="0"/>
        <pt x="158" y="204" on="0"/>
      </contour>
    </TTGlyph>
    <TTGlyph name="colon" xMin="59" yMin="-7" xMax="127" yMax="452">
      <contour>
        <pt x="92" y="383" on="1"/>
        <pt x="78" y="383" on="0"/>
        <pt x="59" y="403" on="0"/>
        <pt x="59" y="418" on="1"/>
        <pt x="59" y="432" on="0"/>
        <pt x="78" y="452" on="0"/>
        <pt x="92" y="452" on="1"/>
        <pt x="108" y="452" on="0"/>
        <pt x="127" y="432" on="0"/>
        <pt x="127" y="418" on="1"/>
        <pt x="127" y="403" on="0"/>
        <pt x="107" y="383" on="0"/>
      </contour>
      <contour>
        <pt x="92" y="-7" on="1"/>
        <pt x="78" y="-7" on="0"/>
        <pt x="59" y="13" on="0"/>
        <pt x="59" y="28" on="1"/>
        <pt x="59" y="42" on="0"/>
        <pt x="78" y="61" on="0"/>
        <pt x="92" y="61" on="1"/>
        <pt x="108" y="61" on="0"/>
        <pt x="127" y="42" on="0"/>
        <pt x="127" y="28" on="1"/>
        <pt x="127" y="13" on="0"/>
        <pt x="107" y="-7" on="0"/>
      </contour>
    </TTGlyph>
    <TTGlyph name="comma" xMin="35" yMin="-118" xMax="124" yMax="88">
      <contour>
        <pt x="35" y="-118" on="1"/>
        <pt x="81" y="88" on="1"/>
        <pt x="124" y="88" on="1"/>
        <pt x="66" y="-118" on="1"/>
      </contour>
    </TTGlyph>
    <TTGlyph name="copyright" xMin="64" yMin="-75" xMax="789" yMax="645">
      <contour>
        <pt x="423" y="-75" on="1"/>
        <pt x="350" y="-75" on="0"/>
        <pt x="219" y="-19" on="0"/>
        <pt x="120" y="81" on="0"/>
        <pt x="64" y="211" on="0"/>
        <pt x="64" y="285" on="1"/>
        <pt x="64" y="359" on="0"/>
        <pt x="120" y="489" on="0"/>
        <pt x="219" y="589" on="0"/>
        <pt x="350" y="645" on="0"/>
        <pt x="423" y="645" on="1"/>
        <pt x="498" y="645" on="0"/>
        <pt x="631" y="589" on="0"/>
        <pt x="732" y="489" on="0"/>
        <pt x="789" y="359" on="0"/>
        <pt x="789" y="285" on="1"/>
        <pt x="789" y="211" on="0"/>
        <pt x="732" y="81" on="0"/>
        <pt x="631" y="-19" on="0"/>
        <pt x="498" y="-75" on="0"/>
      </contour>
      <contour>
        <pt x="423" y="-41" on="1"/>
        <pt x="492" y="-41" on="0"/>
        <pt x="611" y="10" on="0"/>
        <pt x="701" y="100" on="0"/>
        <pt x="752" y="218" on="0"/>
        <pt x="752" y="285" on="1"/>
        <pt x="752" y="352" on="0"/>
        <pt x="701" y="470" on="0"/>
        <pt x="611" y="560" on="0"/>
        <pt x="492" y="611" on="0"/>
        <pt x="423" y="611" on="1"/>
        <pt x="356" y="611" on="0"/>
        <pt x="239" y="560" on="0"/>
        <pt x="151" y="470" on="0"/>
        <pt x="101" y="352" on="0"/>
        <pt x="101" y="285" on="1"/>
        <pt x="101" y="218" on="0"/>
        <pt x="151" y="100" on="0"/>
        <pt x="239" y="10" on="0"/>
        <pt x="356" y="-41" on="0"/>
      </contour>
      <contour>
        <pt x="427" y="85" on="1"/>
        <pt x="370" y="85" on="0"/>
        <pt x="279" y="138" on="0"/>
        <pt x="226" y="229" on="0"/>
        <pt x="226" y="285" on="1"/>
        <pt x="226" y="341" on="0"/>
        <pt x="280" y="432" on="0"/>
        <pt x="371" y="486" on="0"/>
        <pt x="427" y="486" on="1"/>
        <pt x="484" y="486" on="0"/>
        <pt x="578" y="430" on="0"/>
        <pt x="603" y="385" on="1"/>
        <pt x="570" y="365" on="1"/>
        <pt x="551" y="403" on="0"/>
        <pt x="473" y="450" on="0"/>
        <pt x="427" y="450" on="1"/>
        <pt x="381" y="450" on="0"/>
        <pt x="306" y="406" on="0"/>
        <pt x="262" y="331" on="0"/>
        <pt x="262" y="285" on="1"/>
        <pt x="262" y="239" on="0"/>
        <pt x="306" y="164" on="0"/>
        <pt x="381" y="121" on="0"/>
        <pt x="427" y="121" on="1"/>
        <pt x="475" y="121" on="0"/>
        <pt x="553" y="170" on="0"/>
        <pt x="573" y="210" on="1"/>
        <pt x="606" y="192" on="1"/>
        <pt x="581" y="144" on="0"/>
        <pt x="485" y="85" on="0"/>
      </contour>
    </TTGlyph>
    <TTGlyph name="degree" xMin="79" yMin="441" xMax="320" yMax="682">
      <contour>
        <pt x="200" y="441" on="1"/>
        <pt x="166" y="441" on="0"/>
        <pt x="111" y="474" on="0"/>
        <pt x="79" y="529" on="0"/>
        <pt x="79" y="562" on="1"/>
        <pt x="79" y="595" on="0"/>
        <pt x="112" y="650" on="0"/>
        <pt x="166" y="682" on="0"/>
        <pt x="200" y="682" on="1"/>
        <pt x="233" y="682" on="0"/>
        <pt x="288" y="650" on="0"/>
        <pt x="320" y="595" on="0"/>
        <pt x="320" y="562" on="1"/>
        <pt x="320" y="529" on="0"/>
        <pt x="288" y="474" on="0"/>
        <pt x="233" y="441" on="0"/>
      </contour>
      <contour>
        <pt x="200" y="474" on="1"/>
        <pt x="236" y="474" on="0"/>
        <pt x="288" y="525" on="0"/>
        <pt x="288" y="562" on="1"/>
        <pt x="288" y="598" on="0"/>
        <pt x="236" y="650" on="0"/>
        <pt x="200" y="650" on="1"/>
        <pt x="163" y="650" on="0"/>
        <pt x="112" y="598" on="0"/>
        <pt x="112" y="562" on="1"/>
        <pt x="112" y="525" on="0"/>
        <pt x="163" y="474" on="0"/>
      </contour>
    </TTGlyph>
    <TTGlyph name="divide" xMin="68" yMin="101" xMax="433" yMax="476">
      <contour>
        <pt x="250" y="414" on="1"/>
        <pt x="237" y="414" on="0"/>
        <pt x="219" y="432" on="0"/>
        <pt x="219" y="445" on="1"/>
        <pt x="219" y="458" on="0"/>
        <pt x="237" y="476" on="0"/>
        <pt x="250" y="476" on="1"/>
        <pt x="264" y="476" on="0"/>
        <pt x="281" y="458" on="0"/>
        <pt x="281" y="445" on="1"/>
        <pt x="281" y="432" on="0"/>
        <pt x="264" y="414" on="0"/>
      </contour>
      <contour>
        <pt x="68" y="269" on="1"/>
        <pt x="68" y="302" on="1"/>
        <pt x="433" y="302" on="1"/>
        <pt x="433" y="269" on="1"/>
      </contour>
      <contour>
        <pt x="250" y="101" on="1"/>
        <pt x="237" y="101" on="0"/>
        <pt x="219" y="118" on="0"/>
        <pt x="219" y="132" on="1"/>
        <pt x="219" y="145" on="0"/>
        <pt x="237" y="163" on="0"/>
        <pt x="250" y="163" on="1"/>
        <pt x="264" y="163" on="0"/>
        <pt x="281" y="145" on="0"/>
        <pt x="281" y="132" on="1"/>
        <pt x="281" y="118" on="0"/>
        <pt x="264" y="101" on="0"/>
      </contour>
    </TTGlyph>
    <TTGlyph name="dollar" xMin="77" yMin="-102" xMax="521" yMax="730">
      <contour>
        <pt x="291" y="-102" on="1"/>
        <pt x="291" y="-9" on="1"/>
        <pt x="219" y="-5" on="0"/>
        <pt x="120" y="45" on="0"/>
        <pt x="77" y="89" on="1"/>
        <pt x="106" y="117" on="1"/>
        <pt x="144" y="77" on="0"/>
        <pt x="229" y="30" on="0"/>
        <pt x="291" y="26" on="1"/>
        <pt x="291" y="308" on="1"/>
        <pt x="242" y="326" on="0"/>
        <pt x="151" y="368" on="0"/>
        <pt x="93" y="431" on="0"/>
        <pt x="93" y="480" on="1"/>
        <pt x="93" y="519" on="0"/>
        <pt x="138" y="593" on="0"/>
        <pt x="226" y="641" on="0"/>
        <pt x="291" y="643" on="1"/>
        <pt x="291" y="730" on="1"/>
        <pt x="329" y="730" on="1"/>
        <pt x="329" y="642" on="1"/>
        <pt x="389" y="637" on="0"/>
        <pt x="476" y="588" on="0"/>
        <pt x="512" y="552" on="1"/>
        <pt x="481" y="528" on="1"/>
        <pt x="451" y="560" on="0"/>
        <pt x="379" y="602" on="0"/>
        <pt x="329" y="607" on="1"/>
        <pt x="329" y="339" on="1"/>
        <pt x="377" y="322" on="0"/>
        <pt x="465" y="277" on="0"/>
        <pt x="521" y="208" on="0"/>
        <pt x="521" y="154" on="1"/>
        <pt x="521" y="112" on="0"/>
        <pt x="475" y="39" on="0"/>
        <pt x="389" y="-7" on="0"/>
        <pt x="329" y="-9" on="1"/>
        <pt x="329" y="-102" on="1"/>
      </contour>
      <contour>
        <pt x="131" y="480" on="1"/>
        <pt x="131" y="445" on="0"/>
        <pt x="176" y="399" on="0"/>
        <pt x="249" y="367" on="0"/>
        <pt x="291" y="352" on="1"/>
        <pt x="291" y="608" on="1"/>
        <pt x="238" y="606" on="0"/>
        <pt x="168" y="566" on="0"/>
        <pt x="131" y="509" on="0"/>
      </contour>
      <contour>
        <pt x="482" y="154" on="1"/>
        <pt x="482" y="193" on="0"/>
        <pt x="440" y="245" on="0"/>
        <pt x="370" y="280" on="0"/>
        <pt x="329" y="295" on="1"/>
        <pt x="329" y="26" on="1"/>
        <pt x="401" y="30" on="0"/>
        <pt x="482" y="105" on="0"/>
      </contour>
    </TTGlyph>
    <TTGlyph name="eight" xMin="60" yMin="-8" xMax="456" yMax="609">
      <contour>
        <pt x="258" y="-8" on="1"/>
        <pt x="168" y="-8" on="0"/>
        <pt x="60" y="91" on="0"/>
        <pt x="60" y="172" on="1"/>
        <pt x="60" y="214" on="0"/>
        <pt x="96" y="283" on="0"/>
        <pt x="157" y="330" on="0"/>
        <pt x="195" y="337" on="1"/>
        <pt x="167" y="343" on="0"/>
        <pt x="122" y="385" on="0"/>
        <pt x="97" y="439" on="0"/>
        <pt x="97" y="467" on="1"/>
        <pt x="97" y="504" on="0"/>
        <pt x="140" y="569" on="0"/>
        <pt x="213" y="609" on="0"/>
        <pt x="258" y="609" on="1"/>
        <pt x="302" y="609" on="0"/>
        <pt x="375" y="569" on="0"/>
        <pt x="419" y="504" on="0"/>
        <pt x="419" y="467" on="1"/>
        <pt x="419" y="439" on="0"/>
        <pt x="393" y="385" on="0"/>
        <pt x="348" y="343" on="0"/>
        <pt x="321" y="337" on="1"/>
        <pt x="358" y="330" on="0"/>
        <pt x="419" y="283" on="0"/>
        <pt x="456" y="214" on="0"/>
        <pt x="456" y="172" on="1"/>
        <pt x="456" y="91" on="0"/>
        <pt x="347" y="-8" on="0"/>
      </contour>
      <contour>
        <pt x="258" y="353" on="1"/>
        <pt x="293" y="353" on="0"/>
        <pt x="350" y="385" on="0"/>
        <pt x="382" y="436" on="0"/>
        <pt x="382" y="467" on="1"/>
        <pt x="382" y="494" on="0"/>
        <pt x="348" y="542" on="0"/>
        <pt x="292" y="572" on="0"/>
        <pt x="258" y="572" on="1"/>
        <pt x="223" y="572" on="0"/>
        <pt x="167" y="542" on="0"/>
        <pt x="134" y="494" on="0"/>
        <pt x="134" y="467" on="1"/>
        <pt x="134" y="437" on="0"/>
        <pt x="165" y="385" on="0"/>
        <pt x="221" y="353" on="0"/>
      </contour>
      <contour>
        <pt x="258" y="29" on="1"/>
        <pt x="328" y="29" on="0"/>
        <pt x="419" y="109" on="0"/>
        <pt x="419" y="172" on="1"/>
        <pt x="419" y="216" on="0"/>
        <pt x="372" y="282" on="0"/>
        <pt x="298" y="318" on="0"/>
        <pt x="258" y="318" on="1"/>
        <pt x="217" y="318" on="0"/>
        <pt x="143" y="282" on="0"/>
        <pt x="97" y="216" on="0"/>
        <pt x="97" y="172" on="1"/>
        <pt x="97" y="109" on="0"/>
        <pt x="188" y="29" on="0"/>
      </contour>
    </TTGlyph>
    <TTGlyph name="emdash" xMin="52" yMin="250" xMax="649" yMax="284">
      <contour>
        <pt x="52" y="250" on="1"/>
        <pt x="52" y="284" on="1"/>
        <pt x="649" y="284" on="1"/>
        <pt x="649" y="250" on="1"/>
      </contour>
    </TTGlyph>
    <TTGlyph name="endash" xMin="52" yMin="250" xMax="472" yMax="284">
      <contour>
        <pt x="52" y="250" on="1"/>
        <pt x="52" y="284" on="1"/>
        <pt x="472" y="284" on="1"/>
        <pt x="472" y="250" on="1"/>
      </contour>
    </TTGlyph>
    <TTGlyph name="equal" xMin="68" yMin="181" xMax="442" yMax="394">
      <contour>
        <pt x="68" y="361" on="1"/>
        <pt x="68" y="394" on="1"/>
        <pt x="442" y="394" on="1"/>
        <pt x="442" y="361" on="1"/>
      </contour>
      <contour>
        <pt x="68" y="181" on="1"/>
        <pt x="68" y="214" on="1"/>
        <pt x="442" y="214" on="1"/>
        <pt x="442" y="181" on="1"/>
      </contour>
    </TTGlyph>
    <TTGlyph name="exclam" xMin="69" yMin="-4" xMax="130" yMax="599">
      <contour>
        <pt x="88" y="140" on="1"/>
        <pt x="86" y="199" on="0"/>
        <pt x="82" y="325" on="0"/>
        <pt x="80" y="441" on="0"/>
        <pt x="80" y="482" on="1"/>
        <pt x="80" y="599" on="1"/>
        <pt x="118" y="599" on="1"/>
        <pt x="118" y="482" on="1"/>
        <pt x="118" y="441" on="0"/>
        <pt x="116" y="325" on="0"/>
        <pt x="113" y="199" on="0"/>
        <pt x="111" y="140" on="1"/>
      </contour>
      <contour>
        <pt x="71" y="22" on="1"/>
        <pt x="69" y="34" on="0"/>
        <pt x="82" y="53" on="0"/>
        <pt x="93" y="55" on="1"/>
        <pt x="106" y="58" on="0"/>
        <pt x="125" y="46" on="0"/>
        <pt x="128" y="34" on="1"/>
        <pt x="130" y="22" on="0"/>
        <pt x="118" y="2" on="0"/>
        <pt x="105" y="-1" on="1"/>
        <pt x="93" y="-4" on="0"/>
        <pt x="74" y="10" on="0"/>
      </contour>
    </TTGlyph>
    <TTGlyph name="five" xMin="75" yMin="-15" xMax="461" yMax="602">
      <contour>
        <pt x="258" y="-15" on="1"/>
        <pt x="202" y="-15" on="0"/>
        <pt x="105" y="18" on="0"/>
        <pt x="75" y="38" on="1"/>
        <pt x="94" y="69" on="1"/>
        <pt x="118" y="53" on="0"/>
        <pt x="207" y="22" on="0"/>
        <pt x="258" y="22" on="1"/>
        <pt x="331" y="22" on="0"/>
        <pt x="424" y="110" on="0"/>
        <pt x="424" y="182" on="1"/>
        <pt x="424" y="258" on="0"/>
        <pt x="328" y="337" on="0"/>
        <pt x="255" y="337" on="1"/>
        <pt x="219" y="337" on="0"/>
        <pt x="143" y="324" on="0"/>
        <pt x="94" y="311" on="1"/>
        <pt x="102" y="602" on="1"/>
        <pt x="429" y="602" on="1"/>
        <pt x="429" y="565" on="1"/>
        <pt x="138" y="565" on="1"/>
        <pt x="132" y="359" on="1"/>
        <pt x="158" y="365" on="0"/>
        <pt x="231" y="374" on="0"/>
        <pt x="255" y="374" on="1"/>
        <pt x="314" y="374" on="0"/>
        <pt x="408" y="329" on="0"/>
        <pt x="461" y="243" on="0"/>
        <pt x="461" y="182" on="1"/>
        <pt x="461" y="123" on="0"/>
        <pt x="409" y="35" on="0"/>
        <pt x="317" y="-15" on="0"/>
      </contour>
    </TTGlyph>
    <TTGlyph name="four" xMin="35" yMin="0" xMax="464" yMax="602">
      <contour>
        <pt x="351" y="0" on="1"/>
        <pt x="351" y="159" on="1"/>
        <pt x="35" y="159" on="1"/>
        <pt x="35" y="185" on="1"/>
        <pt x="357" y="602" on="1"/>
        <pt x="388" y="602" on="1"/>
        <pt x="388" y="197" on="1"/>
        <pt x="464" y="197" on="1"/>
        <pt x="464" y="160" on="1"/>
        <pt x="388" y="160" on="1"/>
        <pt x="388" y="0" on="1"/>
      </contour>
      <contour>
        <pt x="85" y="196" on="1"/>
        <pt x="105" y="196" on="1"/>
        <pt x="351" y="197" on="1"/>
        <pt x="351" y="533" on="1"/>
      </contour>
    </TTGlyph>
    <TTGlyph name="greater" xMin="73" yMin="86" xMax="508" yMax="499">
      <contour>
        <pt x="74" y="86" on="1"/>
        <pt x="73" y="120" on="1"/>
        <pt x="468" y="295" on="1"/>
        <pt x="73" y="465" on="1"/>
        <pt x="74" y="499" on="1"/>
        <pt x="508" y="313" on="1"/>
        <pt x="508" y="277" on="1"/>
      </contour>
    </TTGlyph>
    <TTGlyph name="hyphen" xMin="67" yMin="250" xMax="433" yMax="284">
      <contour>
        <pt x="67" y="284" on="1"/>
        <pt x="433" y="284" on="1"/>
        <pt x="433" y="250" on="1"/>
        <pt x="67" y="250" on="1"/>
      </contour>
    </TTGlyph>
    <TTGlyph name="less" xMin="73" yMin="86" xMax="508" yMax="499">
      <contour>
        <pt x="507" y="86" on="1"/>
        <pt x="73" y="277" on="1"/>
        <pt x="73" y="313" on="1"/>
        <pt x="507" y="499" on="1"/>
        <pt x="508" y="465" on="1"/>
        <pt x="113" y="295" on="1"/>
        <pt x="508" y="120" on="1"/>
      </contour>
    </TTGlyph>
    <TTGlyph name="minus" xMin="73" yMin="267" xMax="433" yMax="300">
      <contour>
        <pt x="73" y="298" on="1"/>
        <pt x="237" y="300" on="1"/>
        <pt x="433" y="269" on="1"/>
        <pt x="268" y="267" on="1"/>
      </contour>
    </TTGlyph>
    <TTGlyph name="multiply" xMin="71" yMin="129" xMax="385" yMax="442">
      <contour>
        <pt x="94" y="129" on="1"/>
        <pt x="71" y="152" on="1"/>
        <pt x="205" y="285" on="1"/>
        <pt x="71" y="419" on="1"/>
        <pt x="94" y="442" on="1"/>
        <pt x="228" y="309" on="1"/>
        <pt x="362" y="442" on="1"/>
        <pt x="385" y="419" on="1"/>
        <pt x="252" y="285" on="1"/>
        <pt x="385" y="152" on="1"/>
        <pt x="362" y="129" on="1"/>
        <pt x="228" y="262" on="1"/>
      </contour>
    </TTGlyph>
    <TTGlyph name="nine" xMin="65" yMin="-18" xMax="455" yMax="616">
      <contour>
        <pt x="206" y="-18" on="1"/>
        <pt x="180" y="9" on="1"/>
        <pt x="253" y="65" on="0"/>
        <pt x="369" y="202" on="0"/>
        <pt x="396" y="284" on="1"/>
        <pt x="369" y="258" on="0"/>
        <pt x="299" y="228" on="0"/>
        <pt x="260" y="228" on="1"/>
        <pt x="205" y="228" on="0"/>
        <pt x="117" y="279" on="0"/>
        <pt x="65" y="364" on="0"/>
        <pt x="65" y="417" on="1"/>
        <pt x="65" y="473" on="0"/>
        <pt x="113" y="563" on="0"/>
        <pt x="199" y="616" on="0"/>
        <pt x="257" y="616" on="1"/>
        <pt x="311" y="616" on="0"/>
        <pt x="401" y="562" on="0"/>
        <pt x="455" y="470" on="0"/>
        <pt x="455" y="415" on="1"/>
        <pt x="455" y="414" on="0"/>
        <pt x="455" y="414" on="1"/>
        <pt x="454" y="331" on="0"/>
        <pt x="392" y="175" on="0"/>
        <pt x="280" y="37" on="0"/>
      </contour>
      <contour>
        <pt x="260" y="265" on="1"/>
        <pt x="300" y="265" on="0"/>
        <pt x="372" y="304" on="0"/>
        <pt x="418" y="371" on="0"/>
        <pt x="418" y="415" on="1"/>
        <pt x="418" y="461" on="0"/>
        <pt x="374" y="535" on="0"/>
        <pt x="300" y="579" on="0"/>
        <pt x="257" y="579" on="1"/>
        <pt x="184" y="579" on="0"/>
        <pt x="102" y="486" on="0"/>
        <pt x="102" y="417" on="1"/>
        <pt x="102" y="374" on="0"/>
        <pt x="144" y="305" on="0"/>
        <pt x="216" y="265" on="0"/>
      </contour>
    </TTGlyph>
    <TTGlyph name="notequal" xMin="68" yMin="78" xMax="442" yMax="485">
      <contour>
        <pt x="134" y="78" on="1"/>
        <pt x="184" y="181" on="1"/>
        <pt x="68" y="181" on="1"/>
        <pt x="68" y="214" on="1"/>
        <pt x="200" y="214" on="1"/>
        <pt x="271" y="361" on="1"/>
        <pt x="68" y="361" on="1"/>
        <pt x="68" y="394" on="1"/>
        <pt x="287" y="394" on="1"/>
        <pt x="332" y="485" on="1"/>
        <pt x="368" y="485" on="1"/>
        <pt x="323" y="394" on="1"/>
        <pt x="442" y="394" on="1"/>
        <pt x="442" y="361" on="1"/>
        <pt x="307" y="361" on="1"/>
        <pt x="235" y="214" on="1"/>
        <pt x="442" y="214" on="1"/>
        <pt x="442" y="181" on="1"/>
        <pt x="219" y="181" on="1"/>
        <pt x="170" y="78" on="1"/>
      </contour>
    </TTGlyph>
    <TTGlyph name="numbersign" xMin="63" yMin="-61" xMax="678" yMax="640">
      <contour>
        <pt x="63" y="148" on="1"/>
        <pt x="63" y="186" on="1"/>
        <pt x="213" y="186" on="1"/>
        <pt x="243" y="393" on="1"/>
        <pt x="63" y="393" on="1"/>
        <pt x="63" y="431" on="1"/>
        <pt x="248" y="431" on="1"/>
        <pt x="278" y="640" on="1"/>
        <pt x="317" y="640" on="1"/>
        <pt x="287" y="431" on="1"/>
        <pt x="493" y="431" on="1"/>
        <pt x="523" y="640" on="1"/>
        <pt x="562" y="640" on="1"/>
        <pt x="532" y="431" on="1"/>
        <pt x="678" y="431" on="1"/>
        <pt x="678" y="393" on="1"/>
        <pt x="526" y="393" on="1"/>
        <pt x="497" y="186" on="1"/>
        <pt x="678" y="186" on="1"/>
        <pt x="678" y="148" on="1"/>
        <pt x="491" y="148" on="1"/>
        <pt x="461" y="-61" on="1"/>
        <pt x="422" y="-61" on="1"/>
        <pt x="452" y="148" on="1"/>
        <pt x="246" y="148" on="1"/>
        <pt x="217" y="-61" on="1"/>
        <pt x="178" y="-61" on="1"/>
        <pt x="208" y="148" on="1"/>
      </contour>
      <contour>
        <pt x="252" y="186" on="1"/>
        <pt x="458" y="186" on="1"/>
        <pt x="488" y="393" on="1"/>
        <pt x="281" y="393" on="1"/>
      </contour>
    </TTGlyph>
    <TTGlyph name="one" xMin="65" yMin="0" xMax="292" yMax="612">
      <contour>
        <pt x="255" y="0" on="1"/>
        <pt x="255" y="550" on="1"/>
        <pt x="65" y="457" on="1"/>
        <pt x="65" y="499" on="1"/>
        <pt x="292" y="612" on="1"/>
        <pt x="292" y="0" on="1"/>
      </contour>
    </TTGlyph>
    <TTGlyph name="parenleft" xMin="51" yMin="-236" xMax="286" yMax="735">
      <contour>
        <pt x="258" y="-236" on="1"/>
        <pt x="208" y="-190" on="0"/>
        <pt x="113" y="-54" on="0"/>
        <pt x="51" y="130" on="0"/>
        <pt x="51" y="249" on="1"/>
        <pt x="51" y="369" on="0"/>
        <pt x="113" y="551" on="0"/>
        <pt x="208" y="687" on="0"/>
        <pt x="256" y="735" on="1"/>
        <pt x="285" y="707" on="1"/>
        <pt x="237" y="660" on="0"/>
        <pt x="148" y="532" on="0"/>
        <pt x="92" y="361" on="0"/>
        <pt x="92" y="249" on="1"/>
        <pt x="92" y="138" on="0"/>
        <pt x="148" y="-34" on="0"/>
        <pt x="237" y="-162" on="0"/>
        <pt x="286" y="-208" on="1"/>
      </contour>
    </TTGlyph>
    <TTGlyph name="parenright" xMin="51" yMin="-236" xMax="286" yMax="735">
      <contour>
        <pt x="79" y="-236" on="1"/>
        <pt x="51" y="-208" on="1"/>
        <pt x="100" y="-162" on="0"/>
        <pt x="189" y="-34" on="0"/>
        <pt x="246" y="138" on="0"/>
        <pt x="246" y="249" on="1"/>
        <pt x="246" y="361" on="0"/>
        <pt x="189" y="532" on="0"/>
        <pt x="101" y="660" on="0"/>
        <pt x="52" y="707" on="1"/>
        <pt x="81" y="735" on="1"/>
        <pt x="130" y="687" on="0"/>
        <pt x="224" y="551" on="0"/>
        <pt x="286" y="369" on="0"/>
        <pt x="286" y="249" on="1"/>
        <pt x="286" y="130" on="0"/>
        <pt x="224" y="-54" on="0"/>
        <pt x="129" y="-190" on="0"/>
      </contour>
    </TTGlyph>
    <TTGlyph name="percent" xMin="34" yMin="-34" xMax="814" yMax="628">
      <contour>
        <pt x="162" y="-34" on="1"/>
        <pt x="136" y="-10" on="1"/>
        <pt x="685" y="628" on="1"/>
        <pt x="712" y="605" on="1"/>
      </contour>
      <contour>
        <pt x="205" y="270" on="1"/>
        <pt x="158" y="270" on="0"/>
        <pt x="80" y="316" on="0"/>
        <pt x="34" y="394" on="0"/>
        <pt x="34" y="442" on="1"/>
        <pt x="34" y="489" on="0"/>
        <pt x="80" y="566" on="0"/>
        <pt x="158" y="612" on="0"/>
        <pt x="205" y="612" on="1"/>
        <pt x="252" y="612" on="0"/>
        <pt x="330" y="566" on="0"/>
        <pt x="376" y="489" on="0"/>
        <pt x="376" y="442" on="1"/>
        <pt x="376" y="394" on="0"/>
        <pt x="329" y="317" on="0"/>
        <pt x="252" y="270" on="0"/>
      </contour>
      <contour>
        <pt x="205" y="303" on="1"/>
        <pt x="243" y="303" on="0"/>
        <pt x="305" y="340" on="0"/>
        <pt x="342" y="403" on="0"/>
        <pt x="342" y="442" on="1"/>
        <pt x="342" y="480" on="0"/>
        <pt x="305" y="543" on="0"/>
        <pt x="243" y="580" on="0"/>
        <pt x="205" y="580" on="1"/>
        <pt x="167" y="580" on="0"/>
        <pt x="105" y="543" on="0"/>
        <pt x="68" y="480" on="0"/>
        <pt x="68" y="442" on="1"/>
        <pt x="68" y="403" on="0"/>
        <pt x="105" y="340" on="0"/>
        <pt x="167" y="303" on="0"/>
      </contour>
      <contour>
        <pt x="642" y="-22" on="1"/>
        <pt x="595" y="-22" on="0"/>
        <pt x="518" y="24" on="0"/>
        <pt x="472" y="102" on="0"/>
        <pt x="472" y="150" on="1"/>
        <pt x="472" y="197" on="0"/>
        <pt x="518" y="275" on="0"/>
        <pt x="595" y="321" on="0"/>
        <pt x="642" y="321" on="1"/>
        <pt x="690" y="321" on="0"/>
        <pt x="767" y="275" on="0"/>
        <pt x="814" y="197" on="0"/>
        <pt x="814" y="150" on="1"/>
        <pt x="814" y="103" on="0"/>
        <pt x="767" y="25" on="0"/>
        <pt x="689" y="-22" on="0"/>
      </contour>
      <contour>
        <pt x="642" y="11" on="1"/>
        <pt x="680" y="11" on="0"/>
        <pt x="743" y="48" on="0"/>
        <pt x="780" y="111" on="0"/>
        <pt x="780" y="150" on="1"/>
        <pt x="780" y="188" on="0"/>
        <pt x="743" y="251" on="0"/>
        <pt x="680" y="288" on="0"/>
        <pt x="642" y="288" on="1"/>
        <pt x="604" y="288" on="0"/>
        <pt x="542" y="251" on="0"/>
        <pt x="506" y="189" on="0"/>
        <pt x="506" y="150" on="1"/>
        <pt x="506" y="111" on="0"/>
        <pt x="543" y="48" on="0"/>
        <pt x="605" y="11" on="0"/>
      </contour>
    </TTGlyph>
    <TTGlyph name="period" xMin="59" yMin="-7" xMax="127" yMax="61">
      <contour>
        <pt x="59" y="28" on="1"/>
        <pt x="59" y="42" on="0"/>
        <pt x="78" y="61" on="0"/>
        <pt x="93" y="61" on="1"/>
        <pt x="108" y="61" on="0"/>
        <pt x="127" y="42" on="0"/>
        <pt x="127" y="28" on="1"/>
        <pt x="127" y="13" on="0"/>
        <pt x="108" y="-7" on="0"/>
        <pt x="93" y="-7" on="1"/>
        <pt x="78" y="-7" on="0"/>
        <pt x="59" y="13" on="0"/>
      </contour>
    </TTGlyph>
    <TTGlyph name="periodcentered" xMin="62" yMin="252" xMax="124" yMax="313">
      <contour>
        <pt x="65" y="277" on="1"/>
        <pt x="62" y="289" on="0"/>
        <pt x="75" y="308" on="0"/>
        <pt x="86" y="311" on="1"/>
        <pt x="99" y="313" on="0"/>
        <pt x="118" y="301" on="0"/>
        <pt x="121" y="289" on="1"/>
        <pt x="124" y="277" on="0"/>
        <pt x="111" y="257" on="0"/>
        <pt x="98" y="254" on="1"/>
        <pt x="86" y="252" on="0"/>
        <pt x="67" y="265" on="0"/>
      </contour>
    </TTGlyph>
    <TTGlyph name="plus" xMin="73" yMin="253" xMax="433" yMax="437">
      <contour>
        <pt x="73" y="253" on="1"/>
        <pt x="73" y="287" on="1"/>
        <pt x="236" y="287" on="1"/>
        <pt x="236" y="437" on="1"/>
        <pt x="270" y="437" on="1"/>
        <pt x="270" y="287" on="1"/>
        <pt x="433" y="287" on="1"/>
        <pt x="433" y="253" on="1"/>
      </contour>
    </TTGlyph>
    <TTGlyph name="question" xMin="68" yMin="-7" xMax="475" yMax="620">
      <contour>
        <pt x="242" y="149" on="1"/>
        <pt x="242" y="158" on="1"/>
        <pt x="242" y="202" on="0"/>
        <pt x="281" y="264" on="0"/>
        <pt x="339" y="312" on="0"/>
        <pt x="396" y="356" on="0"/>
        <pt x="436" y="410" on="0"/>
        <pt x="436" y="447" on="1"/>
        <pt x="436" y="485" on="0"/>
        <pt x="391" y="548" on="0"/>
        <pt x="319" y="586" on="0"/>
        <pt x="278" y="586" on="1"/>
        <pt x="217" y="586" on="0"/>
        <pt x="127" y="520" on="0"/>
        <pt x="102" y="474" on="1"/>
        <pt x="68" y="490" on="1"/>
        <pt x="86" y="525" on="0"/>
        <pt x="148" y="584" on="0"/>
        <pt x="230" y="620" on="0"/>
        <pt x="278" y="620" on="1"/>
        <pt x="331" y="620" on="0"/>
        <pt x="420" y="573" on="0"/>
        <pt x="475" y="495" on="0"/>
        <pt x="475" y="447" on="1"/>
        <pt x="475" y="403" on="0"/>
        <pt x="435" y="342" on="0"/>
        <pt x="376" y="296" on="0"/>
        <pt x="317" y="252" on="0"/>
        <pt x="277" y="197" on="0"/>
        <pt x="277" y="158" on="1"/>
        <pt x="277" y="149" on="1"/>
      </contour>
      <contour>
        <pt x="261" y="-7" on="1"/>
        <pt x="246" y="-7" on="0"/>
        <pt x="227" y="13" on="0"/>
        <pt x="227" y="28" on="1"/>
        <pt x="227" y="42" on="0"/>
        <pt x="246" y="61" on="0"/>
        <pt x="261" y="61" on="1"/>
        <pt x="276" y="61" on="0"/>
        <pt x="295" y="42" on="0"/>
        <pt x="295" y="28" on="1"/>
        <pt x="295" y="13" on="0"/>
        <pt x="276" y="-7" on="0"/>
      </contour>
    </TTGlyph>
    <TTGlyph name="quotedbl" xMin="56" yMin="365" xMax="315" yMax="600">
      <contour>
        <pt x="200" y="365" on="1"/>
        <pt x="272" y="600" on="1"/>
        <pt x="315" y="600" on="1"/>
        <pt x="234" y="365" on="1"/>
      </contour>
      <contour>
        <pt x="56" y="365" on="1"/>
        <pt x="128" y="600" on="1"/>
        <pt x="171" y="600" on="1"/>
        <pt x="91" y="365" on="1"/>
      </contour>
    </TTGlyph>
    <TTGlyph name="quotesingle" xMin="55" yMin="365" xMax="170" yMax="600">
      <contour>
        <pt x="55" y="365" on="1"/>
        <pt x="127" y="600" on="1"/>
        <pt x="170" y="600" on="1"/>
        <pt x="89" y="365" on="1"/>
      </contour>
    </TTGlyph>
    <TTGlyph name="registered" xMin="78" yMin="197" xMax="487" yMax="606">
      <contour>
        <pt x="282" y="197" on="1"/>
        <pt x="226" y="197" on="0"/>
        <pt x="133" y="253" on="0"/>
        <pt x="78" y="345" on="0"/>
        <pt x="78" y="402" on="1"/>
        <pt x="78" y="458" on="0"/>
        <pt x="133" y="550" on="0"/>
        <pt x="226" y="606" on="0"/>
        <pt x="282" y="606" on="1"/>
        <pt x="339" y="606" on="0"/>
        <pt x="431" y="550" on="0"/>
        <pt x="487" y="458" on="0"/>
        <pt x="487" y="402" on="1"/>
        <pt x="487" y="345" on="0"/>
        <pt x="431" y="253" on="0"/>
        <pt x="338" y="197" on="0"/>
      </contour>
      <contour>
        <pt x="282" y="218" on="1"/>
        <pt x="333" y="218" on="0"/>
        <pt x="416" y="267" on="0"/>
        <pt x="464" y="351" on="0"/>
        <pt x="464" y="402" on="1"/>
        <pt x="464" y="452" on="0"/>
        <pt x="416" y="535" on="0"/>
        <pt x="333" y="585" on="0"/>
        <pt x="282" y="585" on="1"/>
        <pt x="231" y="585" on="0"/>
        <pt x="149" y="535" on="0"/>
        <pt x="101" y="452" on="0"/>
        <pt x="101" y="402" on="1"/>
        <pt x="101" y="351" on="0"/>
        <pt x="149" y="268" on="0"/>
        <pt x="231" y="218" on="0"/>
      </contour>
      <contour>
        <pt x="218" y="300" on="1"/>
        <pt x="218" y="507" on="1"/>
        <pt x="284" y="507" on="1"/>
        <pt x="320" y="507" on="0"/>
        <pt x="364" y="469" on="0"/>
        <pt x="364" y="440" on="1"/>
        <pt x="364" y="390" on="0"/>
        <pt x="311" y="378" on="1"/>
        <pt x="363" y="300" on="1"/>
        <pt x="339" y="300" on="1"/>
        <pt x="290" y="377" on="1"/>
        <pt x="239" y="377" on="1"/>
        <pt x="239" y="300" on="1"/>
      </contour>
      <contour>
        <pt x="239" y="392" on="1"/>
        <pt x="281" y="392" on="1"/>
        <pt x="309" y="392" on="0"/>
        <pt x="341" y="417" on="0"/>
        <pt x="341" y="439" on="1"/>
        <pt x="341" y="462" on="0"/>
        <pt x="308" y="487" on="0"/>
        <pt x="281" y="487" on="1"/>
        <pt x="239" y="487" on="1"/>
      </contour>
    </TTGlyph>
    <TTGlyph name="semicolon" xMin="35" yMin="-118" xMax="127" yMax="452">
      <contour>
        <pt x="92" y="383" on="1"/>
        <pt x="78" y="383" on="0"/>
        <pt x="59" y="403" on="0"/>
        <pt x="59" y="418" on="1"/>
        <pt x="59" y="432" on="0"/>
        <pt x="78" y="452" on="0"/>
        <pt x="92" y="452" on="1"/>
        <pt x="108" y="452" on="0"/>
        <pt x="127" y="432" on="0"/>
        <pt x="127" y="418" on="1"/>
        <pt x="127" y="403" on="0"/>
        <pt x="107" y="383" on="0"/>
      </contour>
      <contour>
        <pt x="35" y="-118" on="1"/>
        <pt x="81" y="109" on="1"/>
        <pt x="124" y="109" on="1"/>
        <pt x="66" y="-118" on="1"/>
      </contour>
    </TTGlyph>
    <TTGlyph name="seven" xMin="43" yMin="0" xMax="453" yMax="602">
      <contour>
        <pt x="195" y="0" on="1"/>
        <pt x="154" y="0" on="1"/>
        <pt x="397" y="565" on="1"/>
        <pt x="43" y="565" on="1"/>
        <pt x="43" y="602" on="1"/>
        <pt x="453" y="602" on="1"/>
      </contour>
    </TTGlyph>
    <TTGlyph name="six" xMin="65" yMin="-14" xMax="455" yMax="612">
      <contour>
        <pt x="65" y="187" on="1"/>
        <pt x="65" y="307" on="0"/>
        <pt x="195" y="518" on="0"/>
        <pt x="300" y="612" on="1"/>
        <pt x="326" y="586" on="1"/>
        <pt x="266" y="532" on="0"/>
        <pt x="156" y="392" on="0"/>
        <pt x="127" y="316" on="1"/>
        <pt x="153" y="339" on="0"/>
        <pt x="222" y="365" on="0"/>
        <pt x="259" y="365" on="1"/>
        <pt x="316" y="365" on="0"/>
        <pt x="404" y="316" on="0"/>
        <pt x="455" y="232" on="0"/>
        <pt x="455" y="178" on="1"/>
        <pt x="455" y="126" on="0"/>
        <pt x="406" y="38" on="0"/>
        <pt x="320" y="-14" on="0"/>
        <pt x="263" y="-14" on="1"/>
        <pt x="208" y="-14" on="0"/>
        <pt x="119" y="40" on="0"/>
        <pt x="65" y="131" on="0"/>
      </contour>
      <contour>
        <pt x="263" y="23" on="1"/>
        <pt x="310" y="23" on="0"/>
        <pt x="380" y="65" on="0"/>
        <pt x="418" y="135" on="0"/>
        <pt x="418" y="178" on="1"/>
        <pt x="418" y="223" on="0"/>
        <pt x="376" y="290" on="0"/>
        <pt x="304" y="328" on="0"/>
        <pt x="259" y="328" on="1"/>
        <pt x="215" y="328" on="0"/>
        <pt x="144" y="293" on="0"/>
        <pt x="103" y="229" on="0"/>
        <pt x="103" y="187" on="1"/>
        <pt x="103" y="141" on="0"/>
        <pt x="146" y="67" on="0"/>
        <pt x="219" y="23" on="0"/>
      </contour>
    </TTGlyph>
    <TTGlyph name="slash" xMin="41" yMin="-184" xMax="353" yMax="730">
      <contour>
        <pt x="41" y="-184" on="1"/>
        <pt x="314" y="730" on="1"/>
        <pt x="353" y="730" on="1"/>
        <pt x="81" y="-184" on="1"/>
      </contour>
    </TTGlyph>
    <TTGlyph name="three" xMin="62" yMin="-8" xMax="472" yMax="602">
      <contour>
        <pt x="258" y="-8" on="1"/>
        <pt x="210" y="-8" on="0"/>
        <pt x="104" y="27" on="0"/>
        <pt x="62" y="50" on="1"/>
        <pt x="80" y="83" on="1"/>
        <pt x="119" y="61" on="0"/>
        <pt x="216" y="29" on="0"/>
        <pt x="258" y="29" on="1"/>
        <pt x="309" y="29" on="0"/>
        <pt x="389" y="71" on="0"/>
        <pt x="435" y="144" on="0"/>
        <pt x="435" y="188" on="1"/>
        <pt x="435" y="255" on="0"/>
        <pt x="316" y="332" on="0"/>
        <pt x="189" y="354" on="1"/>
        <pt x="382" y="541" on="1"/>
        <pt x="406" y="565" on="1"/>
        <pt x="79" y="565" on="1"/>
        <pt x="79" y="602" on="1"/>
        <pt x="454" y="602" on="1"/>
        <pt x="454" y="565" on="1"/>
        <pt x="263" y="381" on="1"/>
        <pt x="472" y="335" on="0"/>
        <pt x="472" y="188" on="1"/>
        <pt x="472" y="133" on="0"/>
        <pt x="415" y="44" on="0"/>
        <pt x="318" y="-8" on="0"/>
      </contour>
    </TTGlyph>
    <TTGlyph name="trademark" xMin="40" yMin="271" xMax="618" yMax="548">
      <contour>
        <pt x="145" y="271" on="1"/>
        <pt x="145" y="521" on="1"/>
        <pt x="40" y="521" on="1"/>
        <pt x="40" y="548" on="1"/>
        <pt x="278" y="548" on="1"/>
        <pt x="278" y="521" on="1"/>
        <pt x="173" y="521" on="1"/>
        <pt x="173" y="271" on="1"/>
      </contour>
      <contour>
        <pt x="320" y="271" on="1"/>
        <pt x="320" y="546" on="1"/>
        <pt x="347" y="546" on="1"/>
        <pt x="468" y="402" on="1"/>
        <pt x="592" y="546" on="1"/>
        <pt x="618" y="546" on="1"/>
        <pt x="618" y="271" on="1"/>
        <pt x="589" y="271" on="1"/>
        <pt x="589" y="500" on="1"/>
        <pt x="468" y="361" on="1"/>
        <pt x="348" y="500" on="1"/>
        <pt x="348" y="271" on="1"/>
      </contour>
    </TTGlyph>
    <TTGlyph name="two" xMin="53" yMin="0" xMax="481" yMax="612">
      <contour>
        <pt x="76" y="0" on="1"/>
        <pt x="78" y="43" on="1"/>
        <pt x="180" y="123" on="0"/>
        <pt x="335" y="248" on="0"/>
        <pt x="421" y="361" on="0"/>
        <pt x="421" y="423" on="1"/>
        <pt x="421" y="465" on="0"/>
        <pt x="383" y="534" on="0"/>
        <pt x="314" y="575" on="0"/>
        <pt x="268" y="575" on="1"/>
        <pt x="214" y="575" on="0"/>
        <pt x="119" y="522" on="0"/>
        <pt x="84" y="474" on="1"/>
        <pt x="53" y="494" on="1"/>
        <pt x="91" y="544" on="0"/>
        <pt x="194" y="612" on="0"/>
        <pt x="268" y="612" on="1"/>
        <pt x="325" y="612" on="0"/>
        <pt x="411" y="561" on="0"/>
        <pt x="458" y="475" on="0"/>
        <pt x="458" y="423" on="1"/>
        <pt x="458" y="356" on="0"/>
        <pt x="377" y="239" on="0"/>
        <pt x="230" y="114" on="0"/>
        <pt x="132" y="37" on="1"/>
        <pt x="481" y="37" on="1"/>
        <pt x="481" y="0" on="1"/>
      </contour>
    </TTGlyph>
    <TTGlyph name="underscore" xMin="63" yMin="-5" xMax="479" yMax="29">
      <contour>
        <pt x="63" y="29" on="1"/>
        <pt x="479" y="29" on="1"/>
        <pt x="479" y="-5" on="1"/>
        <pt x="63" y="-5" on="1"/>
      </contour>
    </TTGlyph>
    <TTGlyph name="uni05B0" xMin="-27" yMin="-260" xMax="26" yMax="-91">
      <contour>
        <pt x="0" y="-145" on="1"/>
        <pt x="-11" y="-145" on="0"/>
        <pt x="-27" y="-129" on="0"/>
        <pt x="-27" y="-118" on="1"/>
        <pt x="-27" y="-107" on="0"/>
        <pt x="-11" y="-91" on="0"/>
        <pt x="0" y="-91" on="1"/>
        <pt x="11" y="-91" on="0"/>
        <pt x="26" y="-107" on="0"/>
        <pt x="26" y="-118" on="1"/>
        <pt x="26" y="-129" on="0"/>
        <pt x="11" y="-145" on="0"/>
      </contour>
      <contour>
        <pt x="0" y="-260" on="1"/>
        <pt x="-11" y="-260" on="0"/>
        <pt x="-27" y="-244" on="0"/>
        <pt x="-27" y="-233" on="1"/>
        <pt x="-27" y="-222" on="0"/>
        <pt x="-11" y="-206" on="0"/>
        <pt x="0" y="-206" on="1"/>
        <pt x="11" y="-206" on="0"/>
        <pt x="26" y="-222" on="0"/>
        <pt x="26" y="-233" on="1"/>
        <pt x="26" y="-244" on="0"/>
        <pt x="11" y="-260" on="0"/>
      </contour>
    </TTGlyph>
    <TTGlyph name="uni05B1" xMin="-142" yMin="-260" xMax="142" yMax="-91">
      <contour>
        <pt x="116" y="-145" on="1"/>
        <pt x="105" y="-145" on="0"/>
        <pt x="89" y="-129" on="0"/>
        <pt x="89" y="-118" on="1"/>
        <pt x="89" y="-107" on="0"/>
        <pt x="105" y="-91" on="0"/>
        <pt x="116" y="-91" on="1"/>
        <pt x="127" y="-91" on="0"/>
        <pt x="142" y="-107" on="0"/>
        <pt x="142" y="-118" on="1"/>
        <pt x="142" y="-129" on="0"/>
        <pt x="127" y="-145" on="0"/>
      </contour>
      <contour>
        <pt x="-115" y="-145" on="1"/>
        <pt x="-126" y="-145" on="0"/>
        <pt x="-142" y="-129" on="0"/>
        <pt x="-142" y="-118" on="1"/>
        <pt x="-142" y="-107" on="0"/>
        <pt x="-126" y="-91" on="0"/>
        <pt x="-115" y="-91" on="1"/>
        <pt x="-104" y="-91" on="0"/>
        <pt x="-89" y="-107" on="0"/>
        <pt x="-89" y="-118" on="1"/>
        <pt x="-89" y="-129" on="0"/>
        <pt x="-104" y="-145" on="0"/>
      </contour>
      <contour>
        <pt x="-1" y="-145" on="1"/>
        <pt x="-12" y="-145" on="0"/>
        <pt x="-28" y="-129" on="0"/>
        <pt x="-28" y="-118" on="1"/>
        <pt x="-28" y="-107" on="0"/>
        <pt x="-12" y="-91" on="0"/>
        <pt x="-1" y="-91" on="1"/>
        <pt x="10" y="-91" on="0"/>
        <pt x="25" y="-107" on="0"/>
        <pt x="25" y="-118" on="1"/>
        <pt x="25" y="-129" on="0"/>
        <pt x="10" y="-145" on="0"/>
      </contour>
      <contour>
        <pt x="116" y="-260" on="1"/>
        <pt x="105" y="-260" on="0"/>
        <pt x="89" y="-244" on="0"/>
        <pt x="89" y="-233" on="1"/>
        <pt x="89" y="-222" on="0"/>
        <pt x="105" y="-206" on="0"/>
        <pt x="116" y="-206" on="1"/>
        <pt x="127" y="-206" on="0"/>
        <pt x="142" y="-222" on="0"/>
        <pt x="142" y="-233" on="1"/>
        <pt x="142" y="-244" on="0"/>
        <pt x="127" y="-260" on="0"/>
      </contour>
      <contour>
        <pt x="-58" y="-260" on="1"/>
        <pt x="-69" y="-260" on="0"/>
        <pt x="-85" y="-244" on="0"/>
        <pt x="-85" y="-233" on="1"/>
        <pt x="-85" y="-222" on="0"/>
        <pt x="-69" y="-206" on="0"/>
        <pt x="-58" y="-206" on="1"/>
        <pt x="-47" y="-206" on="0"/>
        <pt x="-32" y="-222" on="0"/>
        <pt x="-32" y="-233" on="1"/>
        <pt x="-32" y="-244" on="0"/>
        <pt x="-47" y="-260" on="0"/>
      </contour>
    </TTGlyph>
    <TTGlyph name="uni05B2" xMin="-154" yMin="-260" xMax="135" yMax="-91">
      <contour>
        <pt x="109" y="-145" on="1"/>
        <pt x="97" y="-145" on="0"/>
        <pt x="82" y="-129" on="0"/>
        <pt x="82" y="-118" on="1"/>
        <pt x="82" y="-107" on="0"/>
        <pt x="97" y="-91" on="0"/>
        <pt x="109" y="-91" on="1"/>
        <pt x="120" y="-91" on="0"/>
        <pt x="135" y="-107" on="0"/>
        <pt x="135" y="-118" on="1"/>
        <pt x="135" y="-129" on="0"/>
        <pt x="120" y="-145" on="0"/>
      </contour>
      <contour>
        <pt x="-154" y="-129" on="1"/>
        <pt x="-154" y="-99" on="1"/>
        <pt x="22" y="-99" on="1"/>
        <pt x="22" y="-129" on="1"/>
      </contour>
      <contour>
        <pt x="109" y="-260" on="1"/>
        <pt x="97" y="-260" on="0"/>
        <pt x="82" y="-244" on="0"/>
        <pt x="82" y="-233" on="1"/>
        <pt x="82" y="-222" on="0"/>
        <pt x="97" y="-206" on="0"/>
        <pt x="109" y="-206" on="1"/>
        <pt x="120" y="-206" on="0"/>
        <pt x="135" y="-222" on="0"/>
        <pt x="135" y="-233" on="1"/>
        <pt x="135" y="-244" on="0"/>
        <pt x="120" y="-260" on="0"/>
      </contour>
    </TTGlyph>
    <TTGlyph name="uni05B3" xMin="-164" yMin="-260" xMax="124" yMax="-91">
      <contour>
        <pt x="98" y="-145" on="1"/>
        <pt x="87" y="-145" on="0"/>
        <pt x="71" y="-129" on="0"/>
        <pt x="71" y="-118" on="1"/>
        <pt x="71" y="-107" on="0"/>
        <pt x="87" y="-91" on="0"/>
        <pt x="98" y="-91" on="1"/>
        <pt x="109" y="-91" on="0"/>
        <pt x="124" y="-107" on="0"/>
        <pt x="124" y="-118" on="1"/>
        <pt x="124" y="-129" on="0"/>
        <pt x="109" y="-145" on="0"/>
      </contour>
      <contour>
        <pt x="-92" y="-256" on="1"/>
        <pt x="-90" y="-129" on="1"/>
        <pt x="-164" y="-129" on="1"/>
        <pt x="-164" y="-99" on="1"/>
        <pt x="12" y="-99" on="1"/>
        <pt x="12" y="-129" on="1"/>
        <pt x="-63" y="-129" on="1"/>
        <pt x="-61" y="-256" on="1"/>
      </contour>
      <contour>
        <pt x="98" y="-260" on="1"/>
        <pt x="87" y="-260" on="0"/>
        <pt x="71" y="-244" on="0"/>
        <pt x="71" y="-233" on="1"/>
        <pt x="71" y="-222" on="0"/>
        <pt x="87" y="-206" on="0"/>
        <pt x="98" y="-206" on="1"/>
        <pt x="109" y="-206" on="0"/>
        <pt x="124" y="-222" on="0"/>
        <pt x="124" y="-233" on="1"/>
        <pt x="124" y="-244" on="0"/>
        <pt x="109" y="-260" on="0"/>
      </contour>
    </TTGlyph>
    <TTGlyph name="uni05B4" xMin="-25" yMin="-143" xMax="24" yMax="-93">
      <contour>
        <pt x="0" y="-143" on="1"/>
        <pt x="-11" y="-143" on="0"/>
        <pt x="-25" y="-128" on="0"/>
        <pt x="-25" y="-118" on="1"/>
        <pt x="-25" y="-107" on="0"/>
        <pt x="-11" y="-93" on="0"/>
        <pt x="0" y="-93" on="1"/>
        <pt x="10" y="-93" on="0"/>
        <pt x="24" y="-107" on="0"/>
        <pt x="24" y="-118" on="1"/>
        <pt x="24" y="-128" on="0"/>
        <pt x="10" y="-143" on="0"/>
      </contour>
    </TTGlyph>
    <TTGlyph name="uni05B5" xMin="-104" yMin="-145" xMax="103" yMax="-91">
      <contour>
        <pt x="-77" y="-145" on="1"/>
        <pt x="-88" y="-145" on="0"/>
        <pt x="-104" y="-129" on="0"/>
        <pt x="-104" y="-118" on="1"/>
        <pt x="-104" y="-107" on="0"/>
        <pt x="-88" y="-91" on="0"/>
        <pt x="-77" y="-91" on="1"/>
        <pt x="-66" y="-91" on="0"/>
        <pt x="-51" y="-107" on="0"/>
        <pt x="-51" y="-118" on="1"/>
        <pt x="-51" y="-129" on="0"/>
        <pt x="-66" y="-145" on="0"/>
      </contour>
      <contour>
        <pt x="77" y="-145" on="1"/>
        <pt x="66" y="-145" on="0"/>
        <pt x="50" y="-129" on="0"/>
        <pt x="50" y="-118" on="1"/>
        <pt x="50" y="-107" on="0"/>
        <pt x="66" y="-91" on="0"/>
        <pt x="77" y="-91" on="1"/>
        <pt x="88" y="-91" on="0"/>
        <pt x="103" y="-107" on="0"/>
        <pt x="103" y="-118" on="1"/>
        <pt x="103" y="-129" on="0"/>
        <pt x="88" y="-145" on="0"/>
      </contour>
    </TTGlyph>
    <TTGlyph name="uni05B6" xMin="-104" yMin="-260" xMax="103" yMax="-91">
      <contour>
        <pt x="-77" y="-145" on="1"/>
        <pt x="-88" y="-145" on="0"/>
        <pt x="-104" y="-129" on="0"/>
        <pt x="-104" y="-118" on="1"/>
        <pt x="-104" y="-107" on="0"/>
        <pt x="-88" y="-91" on="0"/>
        <pt x="-77" y="-91" on="1"/>
        <pt x="-66" y="-91" on="0"/>
        <pt x="-51" y="-107" on="0"/>
        <pt x="-51" y="-118" on="1"/>
        <pt x="-51" y="-129" on="0"/>
        <pt x="-66" y="-145" on="0"/>
      </contour>
      <contour>
        <pt x="77" y="-145" on="1"/>
        <pt x="66" y="-145" on="0"/>
        <pt x="50" y="-129" on="0"/>
        <pt x="50" y="-118" on="1"/>
        <pt x="50" y="-107" on="0"/>
        <pt x="66" y="-91" on="0"/>
        <pt x="77" y="-91" on="1"/>
        <pt x="88" y="-91" on="0"/>
        <pt x="103" y="-107" on="0"/>
        <pt x="103" y="-118" on="1"/>
        <pt x="103" y="-129" on="0"/>
        <pt x="88" y="-145" on="0"/>
      </contour>
      <contour>
        <pt x="0" y="-260" on="1"/>
        <pt x="-11" y="-260" on="0"/>
        <pt x="-27" y="-244" on="0"/>
        <pt x="-27" y="-233" on="1"/>
        <pt x="-27" y="-222" on="0"/>
        <pt x="-11" y="-206" on="0"/>
        <pt x="0" y="-206" on="1"/>
        <pt x="11" y="-206" on="0"/>
        <pt x="26" y="-222" on="0"/>
        <pt x="26" y="-233" on="1"/>
        <pt x="26" y="-244" on="0"/>
        <pt x="11" y="-260" on="0"/>
      </contour>
    </TTGlyph>
    <TTGlyph name="uni05B7" xMin="-117" yMin="-129" xMax="119" yMax="-99">
      <contour>
        <pt x="-117" y="-129" on="1"/>
        <pt x="-117" y="-99" on="1"/>
        <pt x="119" y="-99" on="1"/>
        <pt x="119" y="-129" on="1"/>
      </contour>
    </TTGlyph>
    <TTGlyph name="uni05B8" xMin="-117" yMin="-250" xMax="119" yMax="-99">
      <contour>
        <pt x="-117" y="-129" on="1"/>
        <pt x="-117" y="-99" on="1"/>
        <pt x="119" y="-99" on="1"/>
        <pt x="119" y="-129" on="1"/>
        <pt x="14" y="-129" on="1"/>
        <pt x="16" y="-250" on="1"/>
        <pt x="-15" y="-250" on="1"/>
        <pt x="-13" y="-129" on="1"/>
      </contour>
    </TTGlyph>
    <TTGlyph name="uni05B8.narrow" xMin="-92" yMin="-250" xMax="94" yMax="-99">
      <contour>
        <pt x="-92" y="-129" on="1"/>
        <pt x="-92" y="-99" on="1"/>
        <pt x="94" y="-99" on="1"/>
        <pt x="94" y="-129" on="1"/>
        <pt x="14" y="-129" on="1"/>
        <pt x="16" y="-250" on="1"/>
        <pt x="-15" y="-250" on="1"/>
        <pt x="-13" y="-129" on="1"/>
      </contour>
    </TTGlyph>
    <TTGlyph name="uni05B9" xMin="-64" yMin="643" xMax="-11" yMax="697">
      <contour>
        <pt x="-37" y="643" on="1"/>
        <pt x="-48" y="643" on="0"/>
        <pt x="-64" y="659" on="0"/>
        <pt x="-64" y="670" on="1"/>
        <pt x="-64" y="681" on="0"/>
        <pt x="-48" y="697" on="0"/>
        <pt x="-37" y="697" on="1"/>
        <pt x="-26" y="697" on="0"/>
        <pt x="-11" y="681" on="0"/>
        <pt x="-11" y="670" on="1"/>
        <pt x="-11" y="659" on="0"/>
        <pt x="-26" y="643" on="0"/>
      </contour>
    </TTGlyph>
    <TTGlyph name="uni05BA" xMin="-64" yMin="643" xMax="-11" yMax="697">
      <contour>
        <pt x="-37" y="643" on="1"/>
        <pt x="-48" y="643" on="0"/>
        <pt x="-64" y="659" on="0"/>
        <pt x="-64" y="670" on="1"/>
        <pt x="-64" y="681" on="0"/>
        <pt x="-48" y="697" on="0"/>
        <pt x="-37" y="697" on="1"/>
        <pt x="-26" y="697" on="0"/>
        <pt x="-11" y="681" on="0"/>
        <pt x="-11" y="670" on="1"/>
        <pt x="-11" y="659" on="0"/>
        <pt x="-26" y="643" on="0"/>
      </contour>
    </TTGlyph>
    <TTGlyph name="uni05BB" xMin="-27" yMin="-341" xMax="160" yMax="-91">
      <contour>
        <pt x="0" y="-145" on="1"/>
        <pt x="-11" y="-145" on="0"/>
        <pt x="-27" y="-129" on="0"/>
        <pt x="-27" y="-118" on="1"/>
        <pt x="-27" y="-107" on="0"/>
        <pt x="-11" y="-91" on="0"/>
        <pt x="0" y="-91" on="1"/>
        <pt x="11" y="-91" on="0"/>
        <pt x="26" y="-107" on="0"/>
        <pt x="26" y="-118" on="1"/>
        <pt x="26" y="-129" on="0"/>
        <pt x="11" y="-145" on="0"/>
      </contour>
      <contour>
        <pt x="67" y="-243" on="1"/>
        <pt x="56" y="-243" on="0"/>
        <pt x="40" y="-227" on="0"/>
        <pt x="40" y="-216" on="1"/>
        <pt x="40" y="-205" on="0"/>
        <pt x="56" y="-189" on="0"/>
        <pt x="67" y="-189" on="1"/>
        <pt x="78" y="-189" on="0"/>
        <pt x="93" y="-205" on="0"/>
        <pt x="93" y="-216" on="1"/>
        <pt x="93" y="-227" on="0"/>
        <pt x="78" y="-243" on="0"/>
      </contour>
      <contour>
        <pt x="134" y="-341" on="1"/>
        <pt x="123" y="-341" on="0"/>
        <pt x="107" y="-325" on="0"/>
        <pt x="107" y="-314" on="1"/>
        <pt x="107" y="-303" on="0"/>
        <pt x="123" y="-287" on="0"/>
        <pt x="134" y="-287" on="1"/>
        <pt x="145" y="-287" on="0"/>
        <pt x="160" y="-303" on="0"/>
        <pt x="160" y="-314" on="1"/>
        <pt x="160" y="-325" on="0"/>
        <pt x="145" y="-341" on="0"/>
      </contour>
    </TTGlyph>
    <TTGlyph name="uni05BC" xMin="20" yMin="186" xMax="75" yMax="242">
      <contour>
        <pt x="48" y="186" on="1"/>
        <pt x="36" y="186" on="0"/>
        <pt x="20" y="202" on="0"/>
        <pt x="20" y="214" on="1"/>
        <pt x="20" y="226" on="0"/>
        <pt x="36" y="242" on="0"/>
        <pt x="48" y="242" on="1"/>
        <pt x="59" y="242" on="0"/>
        <pt x="75" y="226" on="0"/>
        <pt x="75" y="214" on="1"/>
        <pt x="75" y="202" on="0"/>
        <pt x="59" y="186" on="0"/>
      </contour>
    </TTGlyph>
    <TTGlyph name="uni05BE" xMin="63" yMin="518" xMax="304" yMax="556">
      <contour>
        <pt x="63" y="556" on="1"/>
        <pt x="304" y="556" on="1"/>
        <pt x="304" y="518" on="1"/>
        <pt x="63" y="518" on="1"/>
      </contour>
    </TTGlyph>
    <TTGlyph name="uni05BF" xMin="-117" yMin="641" xMax="119" yMax="671">
      <contour>
        <pt x="-117" y="641" on="1"/>
        <pt x="-117" y="671" on="1"/>
        <pt x="119" y="671" on="1"/>
        <pt x="119" y="641" on="1"/>
      </contour>
    </TTGlyph>
    <TTGlyph name="uni05C1" xMin="-99" yMin="643" xMax="-46" yMax="697">
      <contour>
        <pt x="-72" y="643" on="1"/>
        <pt x="-83" y="643" on="0"/>
        <pt x="-99" y="659" on="0"/>
        <pt x="-99" y="670" on="1"/>
        <pt x="-99" y="681" on="0"/>
        <pt x="-83" y="697" on="0"/>
        <pt x="-72" y="697" on="1"/>
        <pt x="-61" y="697" on="0"/>
        <pt x="-46" y="681" on="0"/>
        <pt x="-46" y="670" on="1"/>
        <pt x="-46" y="659" on="0"/>
        <pt x="-61" y="643" on="0"/>
      </contour>
    </TTGlyph>
    <TTGlyph name="uni05C2" xMin="62" yMin="643" xMax="115" yMax="697">
      <contour>
        <pt x="89" y="643" on="1"/>
        <pt x="78" y="643" on="0"/>
        <pt x="62" y="659" on="0"/>
        <pt x="62" y="670" on="1"/>
        <pt x="62" y="681" on="0"/>
        <pt x="78" y="697" on="0"/>
        <pt x="89" y="697" on="1"/>
        <pt x="100" y="697" on="0"/>
        <pt x="115" y="681" on="0"/>
        <pt x="115" y="670" on="1"/>
        <pt x="115" y="659" on="0"/>
        <pt x="100" y="643" on="0"/>
      </contour>
    </TTGlyph>
    <TTGlyph name="uni05D0" xMin="70" yMin="-7" xMax="602" yMax="566">
      <contour>
        <pt x="98" y="0" on="1"/>
        <pt x="98" y="84" on="0"/>
        <pt x="114" y="240" on="0"/>
        <pt x="156" y="374" on="0"/>
        <pt x="197" y="423" on="1"/>
        <pt x="169" y="449" on="0"/>
        <pt x="106" y="507" on="0"/>
        <pt x="70" y="539" on="1"/>
        <pt x="95" y="566" on="1"/>
        <pt x="161" y="506" on="0"/>
        <pt x="265" y="411" on="0"/>
        <pt x="351" y="328" on="0"/>
        <pt x="427" y="246" on="0"/>
        <pt x="464" y="200" on="1"/>
        <pt x="511" y="280" on="0"/>
        <pt x="540" y="459" on="0"/>
        <pt x="540" y="556" on="1"/>
        <pt x="577" y="556" on="1"/>
        <pt x="577" y="445" on="0"/>
        <pt x="542" y="258" on="0"/>
        <pt x="485" y="173" on="1"/>
        <pt x="512" y="139" on="0"/>
        <pt x="570" y="60" on="0"/>
        <pt x="602" y="13" on="1"/>
        <pt x="571" y="-7" on="1"/>
        <pt x="524" y="60" on="0"/>
        <pt x="444" y="167" on="0"/>
        <pt x="364" y="259" on="0"/>
        <pt x="276" y="350" on="0"/>
        <pt x="221" y="401" on="1"/>
        <pt x="185" y="354" on="0"/>
        <pt x="148" y="227" on="0"/>
        <pt x="135" y="78" on="0"/>
        <pt x="135" y="0" on="1"/>
      </contour>
    </TTGlyph>
    <TTGlyph name="uni05D0.forDagesh" xMin="70" yMin="-7" xMax="602" yMax="566">
      <contour>
        <pt x="98" y="0" on="1"/>
        <pt x="98" y="84" on="0"/>
        <pt x="114" y="240" on="0"/>
        <pt x="156" y="374" on="0"/>
        <pt x="197" y="423" on="1"/>
        <pt x="169" y="449" on="0"/>
        <pt x="106" y="507" on="0"/>
        <pt x="70" y="539" on="1"/>
        <pt x="95" y="566" on="1"/>
        <pt x="161" y="506" on="0"/>
        <pt x="265" y="411" on="0"/>
        <pt x="351" y="328" on="0"/>
        <pt x="427" y="246" on="0"/>
        <pt x="464" y="200" on="1"/>
        <pt x="511" y="280" on="0"/>
        <pt x="540" y="459" on="0"/>
        <pt x="540" y="556" on="1"/>
        <pt x="577" y="556" on="1"/>
        <pt x="577" y="445" on="0"/>
        <pt x="542" y="258" on="0"/>
        <pt x="485" y="173" on="1"/>
        <pt x="512" y="139" on="0"/>
        <pt x="570" y="60" on="0"/>
        <pt x="602" y="13" on="1"/>
        <pt x="571" y="-7" on="1"/>
        <pt x="524" y="60" on="0"/>
        <pt x="444" y="167" on="0"/>
        <pt x="364" y="259" on="0"/>
        <pt x="276" y="350" on="0"/>
        <pt x="221" y="401" on="1"/>
        <pt x="185" y="354" on="0"/>
        <pt x="148" y="227" on="0"/>
        <pt x="135" y="78" on="0"/>
        <pt x="135" y="0" on="1"/>
      </contour>
    </TTGlyph>
    <TTGlyph name="uni05D1" xMin="65" yMin="0" xMax="521" yMax="559">
      <contour>
        <pt x="65" y="0" on="1"/>
        <pt x="65" y="37" on="1"/>
        <pt x="416" y="37" on="1"/>
        <pt x="416" y="320" on="1"/>
        <pt x="416" y="428" on="0"/>
        <pt x="332" y="521" on="0"/>
        <pt x="232" y="521" on="1"/>
        <pt x="65" y="521" on="1"/>
        <pt x="65" y="559" on="1"/>
        <pt x="232" y="559" on="1"/>
        <pt x="352" y="559" on="0"/>
        <pt x="453" y="438" on="0"/>
        <pt x="453" y="320" on="1"/>
        <pt x="453" y="37" on="1"/>
        <pt x="521" y="37" on="1"/>
        <pt x="521" y="0" on="1"/>
      </contour>
    </TTGlyph>
    <TTGlyph name="uni05D2" xMin="51" yMin="-5" xMax="280" yMax="562">
      <contour>
        <pt x="57" y="-5" on="1"/>
        <pt x="51" y="34" on="1"/>
        <pt x="88" y="44" on="0"/>
        <pt x="156" y="103" on="0"/>
        <pt x="213" y="184" on="0"/>
        <pt x="232" y="227" on="1"/>
        <pt x="230" y="265" on="1"/>
        <pt x="227" y="355" on="0"/>
        <pt x="206" y="461" on="0"/>
        <pt x="146" y="515" on="0"/>
        <pt x="85" y="525" on="1"/>
        <pt x="91" y="562" on="1"/>
        <pt x="161" y="550" on="0"/>
        <pt x="234" y="487" on="0"/>
        <pt x="264" y="368" on="0"/>
        <pt x="268" y="273" on="1"/>
        <pt x="280" y="1" on="1"/>
        <pt x="243" y="0" on="1"/>
        <pt x="235" y="179" on="1"/>
        <pt x="217" y="140" on="0"/>
        <pt x="164" y="64" on="0"/>
        <pt x="96" y="5" on="0"/>
      </contour>
    </TTGlyph>
    <TTGlyph name="uni05D3" xMin="43" yMin="2" xMax="473" yMax="558">
      <contour>
        <pt x="371" y="2" on="1"/>
        <pt x="371" y="521" on="1"/>
        <pt x="43" y="521" on="1"/>
        <pt x="43" y="558" on="1"/>
        <pt x="473" y="558" on="1"/>
        <pt x="473" y="521" on="1"/>
        <pt x="408" y="521" on="1"/>
        <pt x="408" y="2" on="1"/>
      </contour>
    </TTGlyph>
    <TTGlyph name="uni05D4" xMin="84" yMin="0" xMax="531" yMax="557">
      <contour>
        <pt x="494" y="0" on="1"/>
        <pt x="494" y="315" on="1"/>
        <pt x="494" y="389" on="0"/>
        <pt x="460" y="479" on="0"/>
        <pt x="381" y="519" on="0"/>
        <pt x="315" y="519" on="1"/>
        <pt x="84" y="519" on="1"/>
        <pt x="84" y="557" on="1"/>
        <pt x="315" y="557" on="1"/>
        <pt x="433" y="557" on="0"/>
        <pt x="531" y="437" on="0"/>
        <pt x="531" y="315" on="1"/>
        <pt x="531" y="0" on="1"/>
      </contour>
      <contour>
        <pt x="88" y="0" on="1"/>
        <pt x="88" y="343" on="1"/>
        <pt x="125" y="343" on="1"/>
        <pt x="125" y="0" on="1"/>
      </contour>
    </TTGlyph>
    <TTGlyph name="uni05D5" xMin="62" yMin="-1" xMax="213" yMax="563">
      <contour>
        <pt x="176" y="-1" on="1"/>
        <pt x="176" y="364" on="1"/>
        <pt x="176" y="438" on="0"/>
        <pt x="121" y="512" on="0"/>
        <pt x="62" y="525" on="1"/>
        <pt x="67" y="563" on="1"/>
        <pt x="145" y="549" on="0"/>
        <pt x="213" y="450" on="0"/>
        <pt x="213" y="364" on="1"/>
        <pt x="213" y="-1" on="1"/>
      </contour>
    </TTGlyph>
    <TTGlyph name="uni05D6" xMin="62" yMin="-9" xMax="287" yMax="558">
      <contour>
        <pt x="203" y="-9" on="1"/>
        <pt x="180" y="48" on="0"/>
        <pt x="147" y="204" on="0"/>
        <pt x="145" y="289" on="1"/>
        <pt x="143" y="352" on="0"/>
        <pt x="160" y="472" on="0"/>
        <pt x="176" y="521" on="1"/>
        <pt x="62" y="521" on="1"/>
        <pt x="62" y="558" on="1"/>
        <pt x="287" y="558" on="1"/>
        <pt x="287" y="521" on="1"/>
        <pt x="206" y="521" on="1"/>
        <pt x="178" y="435" on="0"/>
        <pt x="183" y="293" on="1"/>
        <pt x="185" y="206" on="0"/>
        <pt x="217" y="62" on="0"/>
        <pt x="236" y="9" on="1"/>
      </contour>
    </TTGlyph>
    <TTGlyph name="uni05D7" xMin="84" yMin="0" xMax="537" yMax="559">
      <contour>
        <pt x="84" y="0" on="1"/>
        <pt x="84" y="559" on="1"/>
        <pt x="321" y="559" on="1"/>
        <pt x="438" y="559" on="0"/>
        <pt x="537" y="441" on="0"/>
        <pt x="537" y="320" on="1"/>
        <pt x="537" y="0" on="1"/>
        <pt x="500" y="0" on="1"/>
        <pt x="500" y="320" on="1"/>
        <pt x="500" y="427" on="0"/>
        <pt x="421" y="522" on="0"/>
        <pt x="321" y="522" on="1"/>
        <pt x="121" y="522" on="1"/>
        <pt x="121" y="0" on="1"/>
      </contour>
    </TTGlyph>
    <TTGlyph name="uni05D8" xMin="84" yMin="-11" xMax="590" yMax="561">
      <contour>
        <pt x="325" y="-11" on="1"/>
        <pt x="211" y="-11" on="0"/>
        <pt x="84" y="157" on="0"/>
        <pt x="84" y="325" on="1"/>
        <pt x="85" y="556" on="1"/>
        <pt x="122" y="556" on="1"/>
        <pt x="121" y="325" on="1"/>
        <pt x="121" y="236" on="0"/>
        <pt x="168" y="102" on="0"/>
        <pt x="259" y="26" on="0"/>
        <pt x="325" y="26" on="1"/>
        <pt x="439" y="26" on="0"/>
        <pt x="553" y="164" on="0"/>
        <pt x="553" y="283" on="1"/>
        <pt x="553" y="397" on="0"/>
        <pt x="478" y="525" on="0"/>
        <pt x="405" y="525" on="1"/>
        <pt x="376" y="525" on="0"/>
        <pt x="316" y="504" on="0"/>
        <pt x="289" y="489" on="1"/>
        <pt x="277" y="521" on="1"/>
        <pt x="304" y="536" on="0"/>
        <pt x="376" y="561" on="0"/>
        <pt x="405" y="561" on="1"/>
        <pt x="499" y="561" on="0"/>
        <pt x="590" y="410" on="0"/>
        <pt x="590" y="283" on="1"/>
        <pt x="590" y="146" on="0"/>
        <pt x="452" y="-11" on="0"/>
      </contour>
    </TTGlyph>
    <TTGlyph name="uni05D9" xMin="58" yMin="218" xMax="270" yMax="563">
      <contour>
        <pt x="240" y="218" on="1"/>
        <pt x="205" y="225" on="1"/>
        <pt x="219" y="284" on="0"/>
        <pt x="232" y="352" on="0"/>
        <pt x="232" y="385" on="1"/>
        <pt x="232" y="449" on="0"/>
        <pt x="143" y="526" on="0"/>
        <pt x="58" y="526" on="1"/>
        <pt x="62" y="563" on="1"/>
        <pt x="163" y="563" on="0"/>
        <pt x="270" y="465" on="0"/>
        <pt x="269" y="385" on="1"/>
        <pt x="268" y="349" on="0"/>
        <pt x="255" y="277" on="0"/>
      </contour>
    </TTGlyph>
    <TTGlyph name="uni05DA" xMin="73" yMin="-140" xMax="485" yMax="557">
      <contour>
        <pt x="383" y="-140" on="1"/>
        <pt x="383" y="520" on="1"/>
        <pt x="73" y="520" on="1"/>
        <pt x="73" y="557" on="1"/>
        <pt x="485" y="557" on="1"/>
        <pt x="485" y="520" on="1"/>
        <pt x="420" y="520" on="1"/>
        <pt x="420" y="-140" on="1"/>
      </contour>
    </TTGlyph>
    <TTGlyph name="uni05DB" xMin="61" yMin="0" xMax="452" yMax="559">
      <contour>
        <pt x="61" y="0" on="1"/>
        <pt x="61" y="37" on="1"/>
        <pt x="211" y="37" on="1"/>
        <pt x="320" y="37" on="0"/>
        <pt x="415" y="165" on="0"/>
        <pt x="415" y="279" on="1"/>
        <pt x="415" y="406" on="0"/>
        <pt x="299" y="522" on="0"/>
        <pt x="169" y="522" on="1"/>
        <pt x="61" y="522" on="1"/>
        <pt x="61" y="559" on="1"/>
        <pt x="169" y="559" on="1"/>
        <pt x="316" y="559" on="0"/>
        <pt x="452" y="421" on="0"/>
        <pt x="452" y="279" on="1"/>
        <pt x="452" y="148" on="0"/>
        <pt x="335" y="0" on="0"/>
        <pt x="211" y="0" on="1"/>
      </contour>
    </TTGlyph>
    <TTGlyph name="uni05DC" xMin="66" yMin="-8" xMax="478" yMax="730">
      <contour>
        <pt x="191" y="-8" on="1"/>
        <pt x="182" y="27" on="1"/>
        <pt x="262" y="58" on="0"/>
        <pt x="378" y="152" on="0"/>
        <pt x="441" y="271" on="0"/>
        <pt x="441" y="337" on="1"/>
        <pt x="441" y="436" on="0"/>
        <pt x="332" y="520" on="0"/>
        <pt x="233" y="522" on="1"/>
        <pt x="67" y="519" on="1"/>
        <pt x="66" y="730" on="1"/>
        <pt x="103" y="730" on="1"/>
        <pt x="103" y="556" on="1"/>
        <pt x="246" y="559" on="1"/>
        <pt x="349" y="557" on="0"/>
        <pt x="478" y="452" on="0"/>
        <pt x="478" y="347" on="1"/>
        <pt x="478" y="229" on="0"/>
        <pt x="327" y="45" on="0"/>
      </contour>
    </TTGlyph>
    <TTGlyph name="uni05DD" xMin="84" yMin="0" xMax="545" yMax="555">
      <contour>
        <pt x="84" y="0" on="1"/>
        <pt x="84" y="555" on="1"/>
        <pt x="333" y="555" on="1"/>
        <pt x="436" y="555" on="0"/>
        <pt x="545" y="448" on="0"/>
        <pt x="545" y="349" on="1"/>
        <pt x="545" y="0" on="1"/>
      </contour>
      <contour>
        <pt x="121" y="37" on="1"/>
        <pt x="508" y="37" on="1"/>
        <pt x="508" y="349" on="1"/>
        <pt x="508" y="518" on="0"/>
        <pt x="333" y="518" on="1"/>
        <pt x="121" y="518" on="1"/>
      </contour>
    </TTGlyph>
    <TTGlyph name="uni05DE" xMin="62" yMin="-4" xMax="614" yMax="568">
      <contour>
        <pt x="383" y="-4" on="1"/>
        <pt x="366" y="-4" on="0"/>
        <pt x="335" y="0" on="0"/>
        <pt x="321" y="3" on="1"/>
        <pt x="327" y="41" on="1"/>
        <pt x="341" y="38" on="0"/>
        <pt x="370" y="34" on="0"/>
        <pt x="387" y="34" on="1"/>
        <pt x="450" y="34" on="0"/>
        <pt x="534" y="100" on="0"/>
        <pt x="577" y="210" on="0"/>
        <pt x="577" y="276" on="1"/>
        <pt x="577" y="399" on="0"/>
        <pt x="484" y="531" on="0"/>
        <pt x="387" y="531" on="1"/>
        <pt x="334" y="531" on="0"/>
        <pt x="256" y="473" on="0"/>
        <pt x="202" y="375" on="0"/>
        <pt x="166" y="255" on="0"/>
        <pt x="145" y="131" on="0"/>
        <pt x="138" y="75" on="1"/>
        <pt x="130" y="-1" on="1"/>
        <pt x="94" y="-1" on="1"/>
        <pt x="103" y="82" on="1"/>
        <pt x="109" y="137" on="0"/>
        <pt x="130" y="255" on="0"/>
        <pt x="163" y="371" on="0"/>
        <pt x="187" y="420" on="1"/>
        <pt x="162" y="449" on="0"/>
        <pt x="99" y="507" on="0"/>
        <pt x="62" y="532" on="1"/>
        <pt x="81" y="564" on="1"/>
        <pt x="120" y="537" on="0"/>
        <pt x="181" y="478" on="0"/>
        <pt x="203" y="450" on="1"/>
        <pt x="235" y="503" on="0"/>
        <pt x="325" y="568" on="0"/>
        <pt x="387" y="568" on="1"/>
        <pt x="503" y="568" on="0"/>
        <pt x="614" y="412" on="0"/>
        <pt x="614" y="276" on="1"/>
        <pt x="614" y="197" on="0"/>
        <pt x="563" y="70" on="0"/>
        <pt x="460" y="-4" on="0"/>
      </contour>
    </TTGlyph>
    <TTGlyph name="uni05DF" xMin="65" yMin="-140" xMax="207" yMax="561">
      <contour>
        <pt x="170" y="-140" on="1"/>
        <pt x="170" y="354" on="1"/>
        <pt x="170" y="429" on="0"/>
        <pt x="121" y="507" on="0"/>
        <pt x="65" y="524" on="1"/>
        <pt x="78" y="561" on="1"/>
        <pt x="145" y="540" on="0"/>
        <pt x="207" y="439" on="0"/>
        <pt x="207" y="354" on="1"/>
        <pt x="207" y="-140" on="1"/>
      </contour>
    </TTGlyph>
    <TTGlyph name="uni05E0" xMin="67" yMin="0" xMax="291" yMax="561">
      <contour>
        <pt x="67" y="0" on="1"/>
        <pt x="67" y="37" on="1"/>
        <pt x="254" y="37" on="1"/>
        <pt x="254" y="254" on="1"/>
        <pt x="254" y="372" on="0"/>
        <pt x="181" y="507" on="0"/>
        <pt x="88" y="524" on="1"/>
        <pt x="95" y="561" on="1"/>
        <pt x="202" y="542" on="0"/>
        <pt x="291" y="388" on="0"/>
        <pt x="291" y="254" on="1"/>
        <pt x="291" y="0" on="1"/>
      </contour>
    </TTGlyph>
    <TTGlyph name="uni05E1" xMin="67" yMin="-7" xMax="597" yMax="559">
      <contour>
        <pt x="335" y="-7" on="1"/>
        <pt x="277" y="-7" on="0"/>
        <pt x="185" y="47" on="0"/>
        <pt x="120" y="137" on="0"/>
        <pt x="87" y="248" on="0"/>
        <pt x="87" y="306" on="1"/>
        <pt x="87" y="357" on="0"/>
        <pt x="118" y="472" on="0"/>
        <pt x="146" y="522" on="1"/>
        <pt x="67" y="522" on="1"/>
        <pt x="67" y="559" on="1"/>
        <pt x="348" y="559" on="1"/>
        <pt x="429" y="559" on="0"/>
        <pt x="541" y="491" on="0"/>
        <pt x="597" y="378" on="0"/>
        <pt x="597" y="310" on="1"/>
        <pt x="597" y="219" on="0"/>
        <pt x="533" y="76" on="0"/>
        <pt x="415" y="-7" on="0"/>
      </contour>
      <contour>
        <pt x="124" y="306" on="1"/>
        <pt x="124" y="256" on="0"/>
        <pt x="152" y="158" on="0"/>
        <pt x="207" y="78" on="0"/>
        <pt x="285" y="30" on="0"/>
        <pt x="335" y="30" on="1"/>
        <pt x="406" y="30" on="0"/>
        <pt x="507" y="104" on="0"/>
        <pt x="560" y="231" on="0"/>
        <pt x="560" y="310" on="1"/>
        <pt x="560" y="368" on="0"/>
        <pt x="513" y="464" on="0"/>
        <pt x="418" y="522" on="0"/>
        <pt x="348" y="522" on="1"/>
        <pt x="182" y="522" on="1"/>
        <pt x="152" y="471" on="0"/>
        <pt x="124" y="359" on="0"/>
      </contour>
    </TTGlyph>
    <TTGlyph name="uni05E2" xMin="59" yMin="-58" xMax="491" yMax="563">
      <contour>
        <pt x="70" y="-58" on="1"/>
        <pt x="60" y="-22" on="1"/>
        <pt x="105" y="-9" on="0"/>
        <pt x="187" y="23" on="0"/>
        <pt x="223" y="42" on="1"/>
        <pt x="198" y="136" on="0"/>
        <pt x="157" y="278" on="0"/>
        <pt x="120" y="392" on="0"/>
        <pt x="82" y="495" on="0"/>
        <pt x="59" y="549" on="1"/>
        <pt x="94" y="563" on="1"/>
        <pt x="116" y="509" on="0"/>
        <pt x="153" y="406" on="0"/>
        <pt x="189" y="291" on="0"/>
        <pt x="228" y="150" on="0"/>
        <pt x="253" y="59" on="1"/>
        <pt x="294" y="84" on="0"/>
        <pt x="360" y="143" on="0"/>
        <pt x="383" y="177" on="1"/>
        <pt x="430" y="247" on="0"/>
        <pt x="453" y="431" on="0"/>
        <pt x="452" y="557" on="1"/>
        <pt x="489" y="557" on="1"/>
        <pt x="491" y="424" on="0"/>
        <pt x="461" y="232" on="0"/>
        <pt x="413" y="158" on="1"/>
        <pt x="362" y="81" on="0"/>
        <pt x="184" y="-24" on="0"/>
      </contour>
    </TTGlyph>
    <TTGlyph name="uni05E3" xMin="62" yMin="-140" xMax="491" yMax="564">
      <contour>
        <pt x="454" y="-140" on="1"/>
        <pt x="454" y="296" on="1"/>
        <pt x="454" y="408" on="0"/>
        <pt x="356" y="527" on="0"/>
        <pt x="253" y="527" on="1"/>
        <pt x="182" y="527" on="0"/>
        <pt x="99" y="434" on="0"/>
        <pt x="99" y="363" on="1"/>
        <pt x="99" y="302" on="0"/>
        <pt x="181" y="226" on="0"/>
        <pt x="244" y="226" on="1"/>
        <pt x="238" y="189" on="1"/>
        <pt x="186" y="189" on="0"/>
        <pt x="107" y="234" on="0"/>
        <pt x="62" y="313" on="0"/>
        <pt x="62" y="363" on="1"/>
        <pt x="62" y="422" on="0"/>
        <pt x="111" y="513" on="0"/>
        <pt x="198" y="564" on="0"/>
        <pt x="253" y="564" on="1"/>
        <pt x="370" y="564" on="0"/>
        <pt x="491" y="426" on="0"/>
        <pt x="491" y="296" on="1"/>
        <pt x="491" y="-140" on="1"/>
      </contour>
    </TTGlyph>
    <TTGlyph name="uni05E4" xMin="62" yMin="-5" xMax="532" yMax="561">
      <contour>
        <pt x="292" y="-5" on="1"/>
        <pt x="240" y="-5" on="0"/>
        <pt x="144" y="14" on="0"/>
        <pt x="94" y="38" on="1"/>
        <pt x="106" y="73" on="1"/>
        <pt x="148" y="53" on="0"/>
        <pt x="233" y="32" on="0"/>
        <pt x="292" y="32" on="1"/>
        <pt x="356" y="32" on="0"/>
        <pt x="447" y="99" on="0"/>
        <pt x="495" y="213" on="0"/>
        <pt x="495" y="283" on="1"/>
        <pt x="495" y="355" on="0"/>
        <pt x="444" y="463" on="0"/>
        <pt x="347" y="524" on="0"/>
        <pt x="279" y="524" on="1"/>
        <pt x="199" y="524" on="0"/>
        <pt x="99" y="450" on="0"/>
        <pt x="99" y="382" on="1"/>
        <pt x="99" y="327" on="0"/>
        <pt x="185" y="272" on="0"/>
        <pt x="247" y="272" on="1"/>
        <pt x="241" y="235" on="1"/>
        <pt x="194" y="235" on="0"/>
        <pt x="112" y="269" on="0"/>
        <pt x="62" y="334" on="0"/>
        <pt x="62" y="382" on="1"/>
        <pt x="62" y="437" on="0"/>
        <pt x="117" y="517" on="0"/>
        <pt x="215" y="561" on="0"/>
        <pt x="279" y="561" on="1"/>
        <pt x="358" y="561" on="0"/>
        <pt x="471" y="490" on="0"/>
        <pt x="532" y="365" on="0"/>
        <pt x="532" y="283" on="1"/>
        <pt x="532" y="202" on="0"/>
        <pt x="473" y="71" on="0"/>
        <pt x="366" y="-5" on="0"/>
      </contour>
    </TTGlyph>
    <TTGlyph name="uni05E5" xMin="60" yMin="-140" xMax="402" yMax="566">
      <contour>
        <pt x="169" y="-140" on="1"/>
        <pt x="169" y="152" on="1"/>
        <pt x="169" y="229" on="0"/>
        <pt x="146" y="359" on="0"/>
        <pt x="98" y="481" on="0"/>
        <pt x="60" y="548" on="1"/>
        <pt x="92" y="566" on="1"/>
        <pt x="143" y="477" on="0"/>
        <pt x="197" y="317" on="0"/>
        <pt x="203" y="224" on="1"/>
        <pt x="259" y="247" on="0"/>
        <pt x="330" y="347" on="0"/>
        <pt x="365" y="481" on="0"/>
        <pt x="365" y="556" on="1"/>
        <pt x="402" y="556" on="1"/>
        <pt x="402" y="468" on="0"/>
        <pt x="358" y="317" on="0"/>
        <pt x="271" y="208" on="0"/>
        <pt x="205" y="185" on="1"/>
        <pt x="206" y="169" on="0"/>
        <pt x="206" y="152" on="1"/>
        <pt x="206" y="-140" on="1"/>
      </contour>
    </TTGlyph>
    <TTGlyph name="uni05E6" xMin="51" yMin="0" xMax="494" yMax="566">
      <contour>
        <pt x="95" y="0" on="1"/>
        <pt x="95" y="37" on="1"/>
        <pt x="436" y="37" on="1"/>
        <pt x="431" y="64" on="0"/>
        <pt x="382" y="128" on="0"/>
        <pt x="315" y="199" on="0"/>
        <pt x="283" y="234" on="1"/>
        <pt x="235" y="287" on="0"/>
        <pt x="159" y="378" on="0"/>
        <pt x="89" y="479" on="0"/>
        <pt x="51" y="546" on="1"/>
        <pt x="82" y="566" on="1"/>
        <pt x="116" y="503" on="0"/>
        <pt x="182" y="406" on="0"/>
        <pt x="258" y="316" on="0"/>
        <pt x="305" y="265" on="1"/>
        <pt x="368" y="308" on="0"/>
        <pt x="446" y="469" on="0"/>
        <pt x="458" y="561" on="1"/>
        <pt x="494" y="556" on="1"/>
        <pt x="482" y="456" on="0"/>
        <pt x="396" y="286" on="0"/>
        <pt x="327" y="241" on="1"/>
        <pt x="365" y="201" on="0"/>
        <pt x="433" y="124" on="0"/>
        <pt x="476" y="52" on="0"/>
        <pt x="476" y="19" on="1"/>
        <pt x="476" y="0" on="1"/>
      </contour>
    </TTGlyph>
    <TTGlyph name="uni05E7" xMin="84" yMin="-140" xMax="535" yMax="555">
      <contour>
        <pt x="291" y="-6" on="1"/>
        <pt x="278" y="30" on="1"/>
        <pt x="342" y="55" on="0"/>
        <pt x="441" y="144" on="0"/>
        <pt x="498" y="259" on="0"/>
        <pt x="498" y="325" on="1"/>
        <pt x="498" y="418" on="0"/>
        <pt x="393" y="518" on="0"/>
        <pt x="299" y="518" on="1"/>
        <pt x="84" y="518" on="1"/>
        <pt x="84" y="555" on="1"/>
        <pt x="299" y="555" on="1"/>
        <pt x="412" y="555" on="0"/>
        <pt x="535" y="431" on="0"/>
        <pt x="535" y="325" on="1"/>
        <pt x="535" y="250" on="0"/>
        <pt x="471" y="120" on="0"/>
        <pt x="360" y="22" on="0"/>
      </contour>
      <contour>
        <pt x="95" y="-140" on="1"/>
        <pt x="95" y="348" on="1"/>
        <pt x="132" y="348" on="1"/>
        <pt x="132" y="-140" on="1"/>
      </contour>
    </TTGlyph>
    <TTGlyph name="uni05E8" xMin="51" yMin="0" xMax="458" yMax="556">
      <contour>
        <pt x="421" y="0" on="1"/>
        <pt x="421" y="356" on="1"/>
        <pt x="421" y="432" on="0"/>
        <pt x="330" y="519" on="0"/>
        <pt x="254" y="519" on="1"/>
        <pt x="51" y="519" on="1"/>
        <pt x="51" y="556" on="1"/>
        <pt x="254" y="556" on="1"/>
        <pt x="316" y="556" on="0"/>
        <pt x="408" y="506" on="0"/>
        <pt x="458" y="416" on="0"/>
        <pt x="458" y="356" on="1"/>
        <pt x="458" y="0" on="1"/>
      </contour>
    </TTGlyph>
    <TTGlyph name="uni05E9" xMin="67" yMin="-6" xMax="654" yMax="556">
      <contour>
        <pt x="356" y="-6" on="1"/>
        <pt x="276" y="-6" on="0"/>
        <pt x="165" y="86" on="0"/>
        <pt x="98" y="244" on="0"/>
        <pt x="67" y="446" on="0"/>
        <pt x="67" y="556" on="1"/>
        <pt x="103" y="556" on="1"/>
        <pt x="103" y="459" on="0"/>
        <pt x="127" y="281" on="0"/>
        <pt x="152" y="210" on="1"/>
        <pt x="201" y="223" on="0"/>
        <pt x="278" y="294" on="0"/>
        <pt x="302" y="333" on="1"/>
        <pt x="329" y="378" on="0"/>
        <pt x="354" y="491" on="0"/>
        <pt x="354" y="556" on="1"/>
        <pt x="391" y="556" on="1"/>
        <pt x="391" y="486" on="0"/>
        <pt x="363" y="364" on="0"/>
        <pt x="333" y="314" on="1"/>
        <pt x="307" y="269" on="0"/>
        <pt x="218" y="195" on="0"/>
        <pt x="163" y="182" on="1"/>
        <pt x="193" y="113" on="0"/>
        <pt x="288" y="31" on="0"/>
        <pt x="356" y="31" on="1"/>
        <pt x="426" y="31" on="0"/>
        <pt x="522" y="106" on="0"/>
        <pt x="581" y="246" on="0"/>
        <pt x="612" y="439" on="0"/>
        <pt x="617" y="556" on="1"/>
        <pt x="654" y="556" on="1"/>
        <pt x="649" y="432" on="0"/>
        <pt x="615" y="227" on="0"/>
        <pt x="548" y="77" on="0"/>
        <pt x="438" y="-5" on="0"/>
      </contour>
    </TTGlyph>
    <TTGlyph name="uni05E9.forDagesh" xMin="63" yMin="-6" xMax="650" yMax="556">
      <contour>
        <pt x="352" y="-6" on="1"/>
        <pt x="272" y="-6" on="0"/>
        <pt x="162" y="86" on="0"/>
        <pt x="94" y="244" on="0"/>
        <pt x="63" y="446" on="0"/>
        <pt x="63" y="556" on="1"/>
        <pt x="100" y="556" on="1"/>
        <pt x="100" y="459" on="0"/>
        <pt x="123" y="281" on="0"/>
        <pt x="148" y="210" on="1"/>
        <pt x="197" y="223" on="0"/>
        <pt x="274" y="294" on="0"/>
        <pt x="298" y="333" on="1"/>
        <pt x="325" y="378" on="0"/>
        <pt x="350" y="491" on="0"/>
        <pt x="350" y="556" on="1"/>
        <pt x="387" y="556" on="1"/>
        <pt x="387" y="486" on="0"/>
        <pt x="359" y="364" on="0"/>
        <pt x="329" y="314" on="1"/>
        <pt x="303" y="269" on="0"/>
        <pt x="214" y="195" on="0"/>
        <pt x="160" y="182" on="1"/>
        <pt x="190" y="113" on="0"/>
        <pt x="284" y="31" on="0"/>
        <pt x="352" y="31" on="1"/>
        <pt x="423" y="31" on="0"/>
        <pt x="518" y="106" on="0"/>
        <pt x="578" y="246" on="0"/>
        <pt x="608" y="439" on="0"/>
        <pt x="613" y="556" on="1"/>
        <pt x="650" y="556" on="1"/>
        <pt x="645" y="432" on="0"/>
        <pt x="611" y="227" on="0"/>
        <pt x="544" y="77" on="0"/>
        <pt x="434" y="-5" on="0"/>
      </contour>
    </TTGlyph>
    <TTGlyph name="uni05EA" xMin="66" yMin="0" xMax="570" yMax="559">
      <contour>
        <pt x="66" y="2" on="1"/>
        <pt x="66" y="39" on="1"/>
        <pt x="157" y="39" on="1"/>
        <pt x="148" y="101" on="0"/>
        <pt x="141" y="227" on="0"/>
        <pt x="144" y="289" on="1"/>
        <pt x="147" y="348" on="0"/>
        <pt x="165" y="464" on="0"/>
        <pt x="178" y="522" on="1"/>
        <pt x="85" y="522" on="1"/>
        <pt x="85" y="559" on="1"/>
        <pt x="354" y="559" on="1"/>
        <pt x="433" y="559" on="0"/>
        <pt x="528" y="494" on="0"/>
        <pt x="570" y="376" on="0"/>
        <pt x="570" y="296" on="1"/>
        <pt x="570" y="0" on="1"/>
        <pt x="533" y="0" on="1"/>
        <pt x="533" y="296" on="1"/>
        <pt x="533" y="405" on="0"/>
        <pt x="453" y="522" on="0"/>
        <pt x="354" y="522" on="1"/>
        <pt x="212" y="522" on="1"/>
        <pt x="199" y="463" on="0"/>
        <pt x="183" y="346" on="0"/>
        <pt x="180" y="288" on="1"/>
        <pt x="178" y="219" on="0"/>
        <pt x="187" y="81" on="0"/>
        <pt x="200" y="2" on="1"/>
      </contour>
    </TTGlyph>
    <TTGlyph name="uni05F3" xMin="55" yMin="365" xMax="170" yMax="600">
      <contour>
        <pt x="55" y="365" on="1"/>
        <pt x="127" y="600" on="1"/>
        <pt x="170" y="600" on="1"/>
        <pt x="89" y="365" on="1"/>
      </contour>
    </TTGlyph>
    <TTGlyph name="uni05F4" xMin="56" yMin="365" xMax="315" yMax="600">
      <contour>
        <pt x="200" y="365" on="1"/>
        <pt x="272" y="600" on="1"/>
        <pt x="315" y="600" on="1"/>
        <pt x="234" y="365" on="1"/>
      </contour>
      <contour>
        <pt x="56" y="365" on="1"/>
        <pt x="128" y="600" on="1"/>
        <pt x="171" y="600" on="1"/>
        <pt x="91" y="365" on="1"/>
      </contour>
    </TTGlyph>
    <TTGlyph name="uni20AA" xMin="93" yMin="0" xMax="643" yMax="556">
      <contour>
        <pt x="254" y="0" on="1"/>
        <pt x="254" y="382" on="1"/>
        <pt x="291" y="382" on="1"/>
        <pt x="291" y="38" on="1"/>
        <pt x="412" y="38" on="1"/>
        <pt x="516" y="38" on="0"/>
        <pt x="606" y="143" on="0"/>
        <pt x="606" y="258" on="1"/>
        <pt x="606" y="556" on="1"/>
        <pt x="643" y="556" on="1"/>
        <pt x="643" y="258" on="1"/>
        <pt x="643" y="130" on="0"/>
        <pt x="533" y="0" on="0"/>
        <pt x="412" y="0" on="1"/>
      </contour>
      <contour>
        <pt x="93" y="0" on="1"/>
        <pt x="93" y="556" on="1"/>
        <pt x="247" y="556" on="1"/>
        <pt x="362" y="556" on="0"/>
        <pt x="468" y="425" on="0"/>
        <pt x="468" y="298" on="1"/>
        <pt x="468" y="178" on="1"/>
        <pt x="431" y="178" on="1"/>
        <pt x="431" y="298" on="1"/>
        <pt x="431" y="413" on="0"/>
        <pt x="344" y="519" on="0"/>
        <pt x="247" y="519" on="1"/>
        <pt x="130" y="519" on="1"/>
        <pt x="130" y="0" on="1"/>
      </contour>
    </TTGlyph>
    <TTGlyph name="uni2196" xMin="91" yMin="136" xMax="512" yMax="556">
      <contour>
        <pt x="92" y="236" on="1"/>
        <pt x="91" y="556" on="1"/>
        <pt x="412" y="555" on="1"/>
        <pt x="412" y="518" on="1"/>
        <pt x="154" y="519" on="1"/>
        <pt x="512" y="162" on="1"/>
        <pt x="486" y="136" on="1"/>
        <pt x="128" y="493" on="1"/>
        <pt x="129" y="236" on="1"/>
      </contour>
    </TTGlyph>
    <TTGlyph name="uni2197" xMin="76" yMin="136" xMax="497" yMax="556">
      <contour>
        <pt x="102" y="136" on="1"/>
        <pt x="76" y="162" on="1"/>
        <pt x="434" y="519" on="1"/>
        <pt x="176" y="518" on="1"/>
        <pt x="176" y="555" on="1"/>
        <pt x="497" y="556" on="1"/>
        <pt x="496" y="235" on="1"/>
        <pt x="459" y="235" on="1"/>
        <pt x="460" y="493" on="1"/>
      </contour>
    </TTGlyph>
    <TTGlyph name="uni2198" xMin="76" yMin="0" xMax="497" yMax="420">
      <contour>
        <pt x="176" y="1" on="1"/>
        <pt x="176" y="38" on="1"/>
        <pt x="434" y="37" on="1"/>
        <pt x="76" y="394" on="1"/>
        <pt x="102" y="420" on="1"/>
        <pt x="460" y="63" on="1"/>
        <pt x="459" y="321" on="1"/>
        <pt x="496" y="321" on="1"/>
        <pt x="497" y="0" on="1"/>
      </contour>
    </TTGlyph>
    <TTGlyph name="uni2199" xMin="88" yMin="0" xMax="508" yMax="421">
      <contour>
        <pt x="88" y="0" on="1"/>
        <pt x="89" y="321" on="1"/>
        <pt x="126" y="321" on="1"/>
        <pt x="125" y="64" on="1"/>
        <pt x="482" y="421" on="1"/>
        <pt x="508" y="395" on="1"/>
        <pt x="150" y="37" on="1"/>
        <pt x="408" y="38" on="1"/>
        <pt x="408" y="1" on="1"/>
      </contour>
    </TTGlyph>
    <TTGlyph name="uniFB2A" xMin="67" yMin="-6" xMax="654" yMax="697">
      <component glyphName="uni05E9" x="0" y="0" flags="0x204"/>
      <component glyphName="uni05C1" x="697" y="0" flags="0x4"/>
    </TTGlyph>
    <TTGlyph name="uniFB2B" xMin="65" yMin="-6" xMax="654" yMax="697">
      <component glyphName="uni05E9" x="0" y="0" flags="0x204"/>
      <component glyphName="uni05C2" x="3" y="0" flags="0x4"/>
    </TTGlyph>
    <TTGlyph name="uniFB2C" xMin="63" yMin="-6" xMax="650" yMax="697">
      <component glyphName="uni05E9.forDagesh" x="0" y="0" flags="0x204"/>
      <component glyphName="uni05BC" x="393" y="62" flags="0x4"/>
      <component glyphName="uni05C1" x="693" y="0" flags="0x4"/>
    </TTGlyph>
    <TTGlyph name="uniFB2D" xMin="61" yMin="-6" xMax="650" yMax="697">
      <component glyphName="uni05E9.forDagesh" x="0" y="0" flags="0x204"/>
      <component glyphName="uni05BC" x="393" y="62" flags="0x4"/>
      <component glyphName="uni05C2" x="-1" y="0" flags="0x4"/>
    </TTGlyph>
    <TTGlyph name="uniFB2E" xMin="70" yMin="-129" xMax="602" yMax="566">
      <component glyphName="uni05D0" x="0" y="0" flags="0x204"/>
      <component glyphName="uni05B7" x="350" y="0" flags="0x4"/>
    </TTGlyph>
    <TTGlyph name="uniFB2F" xMin="70" yMin="-250" xMax="602" yMax="566">
      <component glyphName="uni05D0" x="0" y="0" flags="0x204"/>
      <component glyphName="uni05B8" x="350" y="0" flags="0x4"/>
    </TTGlyph>
    <TTGlyph name="uniFB30" xMin="70" yMin="-7" xMax="602" yMax="566">
      <component glyphName="uni05D0.forDagesh" x="0" y="0" flags="0x204"/>
      <component glyphName="uni05BC" x="234" y="-88" flags="0x4"/>
    </TTGlyph>
    <TTGlyph name="uniFB31" xMin="65" yMin="0" xMax="521" yMax="559">
      <component glyphName="uni05D1" x="0" y="0" flags="0x204"/>
      <component glyphName="uni05BC" x="180" y="62" flags="0x4"/>
    </TTGlyph>
    <TTGlyph name="uniFB32" xMin="51" yMin="-5" xMax="280" yMax="562">
      <component glyphName="uni05D2" x="0" y="0" flags="0x204"/>
      <component glyphName="uni05BC" x="72" y="67" flags="0x4"/>
    </TTGlyph>
    <TTGlyph name="uniFB33" xMin="43" yMin="2" xMax="473" yMax="558">
      <component glyphName="uni05D3" x="0" y="0" flags="0x204"/>
      <component glyphName="uni05BC" x="152" y="62" flags="0x4"/>
    </TTGlyph>
    <TTGlyph name="uniFB34" xMin="84" yMin="0" xMax="531" yMax="557">
      <component glyphName="uni05D4" x="0" y="0" flags="0x204"/>
      <component glyphName="uni05BC" x="259" y="62" flags="0x4"/>
    </TTGlyph>
    <TTGlyph name="uniFB35" xMin="61" yMin="-1" xMax="213" yMax="563">
      <component glyphName="uni05D5" x="0" y="0" flags="0x204"/>
      <component glyphName="uni05BC" x="41" y="62" flags="0x4"/>
    </TTGlyph>
    <TTGlyph name="uniFB36" xMin="34" yMin="-9" xMax="287" yMax="558">
      <component glyphName="uni05D6" x="0" y="0" flags="0x204"/>
      <component glyphName="uni05BC" x="15" y="62" flags="0x4"/>
    </TTGlyph>
    <TTGlyph name="uniFB38" xMin="84" yMin="-11" xMax="590" yMax="561">
      <component glyphName="uni05D8" x="0" y="0" flags="0x204"/>
      <component glyphName="uni05BC" x="282" y="66" flags="0x4"/>
    </TTGlyph>
    <TTGlyph name="uniFB39" xMin="58" yMin="218" xMax="270" yMax="563">
      <component glyphName="uni05D9" x="0" y="0" flags="0x204"/>
      <component glyphName="uni05BC" x="62" y="125" flags="0x4"/>
    </TTGlyph>
    <TTGlyph name="uniFB3A" xMin="73" yMin="-140" xMax="485" yMax="557">
      <component glyphName="uni05DA" x="0" y="0" flags="0x204"/>
      <component glyphName="uni05BC" x="173" y="62" flags="0x4"/>
    </TTGlyph>
    <TTGlyph name="uniFB3B" xMin="61" yMin="0" xMax="452" yMax="559">
      <component glyphName="uni05DB" x="0" y="0" flags="0x204"/>
      <component glyphName="uni05BC" x="147" y="62" flags="0x4"/>
    </TTGlyph>
    <TTGlyph name="uniFB3C" xMin="66" yMin="-8" xMax="478" yMax="730">
      <component glyphName="uni05DC" x="0" y="0" flags="0x204"/>
      <component glyphName="uni05BC" x="183" y="71" flags="0x4"/>
    </TTGlyph>
    <TTGlyph name="uniFB3E" xMin="62" yMin="-4" xMax="614" yMax="568">
      <component glyphName="uni05DE" x="0" y="0" flags="0x204"/>
      <component glyphName="uni05BC" x="324" y="62" flags="0x4"/>
    </TTGlyph>
    <TTGlyph name="uniFB40" xMin="67" yMin="0" xMax="291" yMax="561">
      <component glyphName="uni05E0" x="0" y="0" flags="0x204"/>
      <component glyphName="uni05BC" x="85" y="62" flags="0x4"/>
    </TTGlyph>
    <TTGlyph name="uniFB41" xMin="67" yMin="-7" xMax="597" yMax="559">
      <component glyphName="uni05E1" x="0" y="0" flags="0x204"/>
      <component glyphName="uni05BC" x="292" y="77" flags="0x4"/>
    </TTGlyph>
    <TTGlyph name="uniFB43" xMin="62" yMin="-140" xMax="491" yMax="564">
      <component glyphName="uni05E3" x="0" y="0" flags="0x204"/>
      <component glyphName="uni05BC" x="287" y="25" flags="0x4"/>
    </TTGlyph>
    <TTGlyph name="uniFB44" xMin="62" yMin="-5" xMax="532" yMax="561">
      <component glyphName="uni05E4" x="0" y="0" flags="0x204"/>
      <component glyphName="uni05BC" x="313" y="62" flags="0x4"/>
    </TTGlyph>
    <TTGlyph name="uniFB46" xMin="51" yMin="0" xMax="494" yMax="566">
      <component glyphName="uni05E6" x="0" y="0" flags="0x204"/>
      <component glyphName="uni05BC" x="95" y="25" flags="0x4"/>
    </TTGlyph>
    <TTGlyph name="uniFB47" xMin="84" yMin="-140" xMax="535" yMax="555">
      <component glyphName="uni05E7" x="0" y="0" flags="0x204"/>
      <component glyphName="uni05BC" x="259" y="77" flags="0x4"/>
    </TTGlyph>
    <TTGlyph name="uniFB48" xMin="51" yMin="0" xMax="458" yMax="556">
      <component glyphName="uni05E8" x="0" y="0" flags="0x204"/>
      <component glyphName="uni05BC" x="178" y="62" flags="0x4"/>
    </TTGlyph>
    <TTGlyph name="uniFB49" xMin="63" yMin="-6" xMax="650" yMax="556">
      <component glyphName="uni05E9.forDagesh" x="0" y="0" flags="0x204"/>
      <component glyphName="uni05BC" x="393" y="62" flags="0x4"/>
    </TTGlyph>
    <TTGlyph name="uniFB4A" xMin="66" yMin="0" xMax="570" yMax="559">
      <component glyphName="uni05EA" x="0" y="0" flags="0x204"/>
      <component glyphName="uni05BC" x="311" y="62" flags="0x4"/>
    </TTGlyph>
    <TTGlyph name="uniFB4B" xMin="62" yMin="-1" xMax="213" yMax="697">
      <component glyphName="uni05D5" x="0" y="0" flags="0x204"/>
      <component glyphName="uni05B9" x="161" y="0" flags="0x4"/>
    </TTGlyph>
    <TTGlyph name="zero" xMin="54" yMin="-7" xMax="486" yMax="609">
      <contour>
        <pt x="270" y="-7" on="1"/>
        <pt x="208" y="-7" on="0"/>
        <pt x="110" y="70" on="0"/>
        <pt x="54" y="209" on="0"/>
        <pt x="54" y="303" on="1"/>
        <pt x="54" y="397" on="0"/>
        <pt x="111" y="535" on="0"/>
        <pt x="209" y="609" on="0"/>
        <pt x="270" y="609" on="1"/>
        <pt x="332" y="609" on="0"/>
        <pt x="430" y="534" on="0"/>
        <pt x="486" y="396" on="0"/>
        <pt x="486" y="303" on="1"/>
        <pt x="486" y="208" on="0"/>
        <pt x="429" y="69" on="0"/>
        <pt x="332" y="-7" on="0"/>
      </contour>
      <contour>
        <pt x="270" y="30" on="1"/>
        <pt x="321" y="30" on="0"/>
        <pt x="402" y="96" on="0"/>
        <pt x="449" y="218" on="0"/>
        <pt x="449" y="303" on="1"/>
        <pt x="449" y="387" on="0"/>
        <pt x="402" y="507" on="0"/>
        <pt x="321" y="572" on="0"/>
        <pt x="270" y="572" on="1"/>
        <pt x="219" y="572" on="0"/>
        <pt x="138" y="507" on="0"/>
        <pt x="91" y="386" on="0"/>
        <pt x="91" y="303" on="1"/>
        <pt x="91" y="218" on="0"/>
        <pt x="138" y="96" on="0"/>
        <pt x="219" y="30" on="0"/>
      </contour>
    </TTGlyph>
</ttFont>
